<?xml version="1.0" encoding="UTF-8" standalone="no"?>
<svg
   xmlns:dc="http://purl.org/dc/elements/1.1/"
   xmlns:cc="http://creativecommons.org/ns#"
   xmlns:rdf="http://www.w3.org/1999/02/22-rdf-syntax-ns#"
   xmlns:svg="http://www.w3.org/2000/svg"
   xmlns="http://www.w3.org/2000/svg"
   xmlns:sodipodi="http://sodipodi.sourceforge.net/DTD/sodipodi-0.dtd"
   xmlns:inkscape="http://www.inkscape.org/namespaces/inkscape"
   version="1.1"
   viewBox="0.0 0.0 960.0 720.0"
   fill="none"
   stroke="none"
   stroke-linecap="square"
   stroke-miterlimit="10"
   id="svg4982"
   inkscape:version="0.91 r13725"
   sodipodi:docname="distributed_memory.svg"
   inkscape:export-filename="/home/ostueker/ACENET/Parallel_Computing_School/ACENET_Summer_School_General/fig/parallel_architecture/distributed_memory.png"
   inkscape:export-xdpi="72"
   inkscape:export-ydpi="72">
  <metadata
     id="metadata5121">
    <rdf:RDF>
      <cc:Work
         rdf:about="">
        <dc:format>image/svg+xml</dc:format>
        <dc:type
           rdf:resource="http://purl.org/dc/dcmitype/StillImage" />
      </cc:Work>
    </rdf:RDF>
  </metadata>
  <defs
     id="defs5119" />
  <sodipodi:namedview
     pagecolor="#ffffff"
     bordercolor="#666666"
     borderopacity="1"
     objecttolerance="10"
     gridtolerance="10"
     guidetolerance="10"
     inkscape:pageopacity="0"
     inkscape:pageshadow="2"
     inkscape:window-width="1798"
     inkscape:window-height="954"
     id="namedview5117"
     showgrid="false"
     inkscape:zoom="0.8"
     inkscape:cx="594.51459"
     inkscape:cy="360"
     inkscape:window-x="1466"
     inkscape:window-y="39"
     inkscape:window-maximized="0"
     inkscape:current-layer="svg4982" />
  <clipPath
     id="g2a0863b0b0_0_47.0">
    <path
       d="m0 0l960.0 0l0 720.0l-960.0 0l0 -720.0z"
       clip-rule="nonzero"
       id="path4985" />
  </clipPath>
  <g
     id="g5728">
    <path
       d="m 170.04724,302.3622 0,28.34644 0.063,0 0,28.34646"
       id="path5031"
       inkscape:connector-curvature="0"
       style="fill:#000000;fill-opacity:0;fill-rule:evenodd" />
    <path
       d="m 170.04724,302.3622 0,28.34644 0.063,0 0,28.34646"
       id="path5033"
       inkscape:connector-curvature="0"
       style="fill-rule:evenodd;stroke:#000000;stroke-width:1;stroke-linecap:butt;stroke-linejoin:round" />
    <path
       d="m 359.03937,302.3622 0,28.34644 0.063,0 0,28.34646"
       id="path5035"
       inkscape:connector-curvature="0"
       style="fill:#000000;fill-opacity:0;fill-rule:evenodd" />
    <path
       d="m 359.03937,302.3622 0,28.34644 0.063,0 0,28.34646"
       id="path5037"
       inkscape:connector-curvature="0"
       style="fill-rule:evenodd;stroke:#000000;stroke-width:1;stroke-linecap:butt;stroke-linejoin:round" />
    <path
       d="m 548.01575,302.3622 0,28.34644 0.063,0 0,28.34646"
       id="path5039"
       inkscape:connector-curvature="0"
       style="fill:#000000;fill-opacity:0;fill-rule:evenodd" />
    <path
       d="m 548.01575,302.3622 0,28.34644 0.063,0 0,28.34646"
       id="path5041"
       inkscape:connector-curvature="0"
       style="fill-rule:evenodd;stroke:#000000;stroke-width:1;stroke-linecap:butt;stroke-linejoin:round" />
    <path
       d="m 736.9921,302.3622 0,28.34644 0.063,0 0,28.34646"
       id="path5043"
       inkscape:connector-curvature="0"
       style="fill:#000000;fill-opacity:0;fill-rule:evenodd" />
    <path
       d="m 736.9921,302.3622 0,28.34644 0.063,0 0,28.34646"
       id="path5045"
       inkscape:connector-curvature="0"
       style="fill-rule:evenodd;stroke:#000000;stroke-width:1;stroke-linecap:butt;stroke-linejoin:round" />
    <path
       d="m 113.38583,491.3386 699.21265,0 0,37.79526 -699.21265,0 z"
       id="path5047"
       inkscape:connector-curvature="0"
       style="fill:#99ccff;fill-opacity:0;fill-rule:evenodd" />
    <path
       d="m 113.38583,491.3386 699.21265,0 0,37.79526 -699.21265,0 z"
       id="path5049"
       inkscape:connector-curvature="0"
       style="fill-rule:evenodd;stroke:#000000;stroke-width:1;stroke-linecap:butt;stroke-linejoin:round" />
    <path
       d="m 380.64188,519.83624 0,-19.07816 2.53125,0 0,19.07816 -2.53125,0 z m 6.67157,0 0,-13.82816 2.10937,0 0,1.96875 q 1.53125,-2.28125 4.40625,-2.28125 1.25,0 2.29688,0.45313 1.04687,0.45312 1.5625,1.1875 0.53125,0.71875 0.73437,1.71875 0.125,0.65625 0.125,2.28125 l 0,8.50003 -2.34375,0 0,-8.40628 q 0,-1.4375 -0.28125,-2.14063 -0.26562,-0.71875 -0.96875,-1.14062 -0.6875,-0.42188 -1.625,-0.42188 -1.48437,0 -2.57812,0.95313 -1.09375,0.95312 -1.09375,3.6094 l 0,7.54688 -2.34375,0 z m 19.94995,-2.09375 0.32813,2.0625 q -0.98438,0.21875 -1.76563,0.21875 -1.26562,0 -1.96875,-0.40625 -0.70312,-0.40625 -1,-1.0625 -0.28125,-0.65625 -0.28125,-2.76563 l 0,-7.95315 -1.71875,0 0,-1.82813 1.71875,0 0,-3.42187 2.32813,-1.40625 0,4.82812 2.35937,0 0,1.82813 -2.35937,0 0,8.07815 q 0,1 0.125,1.29688 0.125,0.28125 0.40625,0.45312 0.28125,0.17188 0.79687,0.17188 0.39063,0 1.03125,-0.0937 z m 11.7497,-2.35938 2.42187,0.29688 q -0.57812,2.125 -2.125,3.29687 -1.54687,1.17188 -3.95312,1.17188 -3.03125,0 -4.8125,-1.85938 -1.78125,-1.875 -1.78125,-5.25 0,-3.4844 1.79687,-5.40628 1.79688,-1.9375 4.67188,-1.9375 2.76562,0 4.51562,1.89063 1.76563,1.89062 1.76563,5.31253 0,0.20312 -0.0156,0.625 l -10.3125,0 q 0.14063,2.28125 1.29688,3.5 1.15625,1.20312 2.89062,1.20312 1.28125,0 2.1875,-0.67187 0.92188,-0.6875 1.45313,-2.17188 z m -7.6875,-3.78128 7.71875,0 q -0.15625,-1.75 -0.89063,-2.625 -1.125,-1.34375 -2.90625,-1.34375 -1.60937,0 -2.71875,1.07813 -1.09375,1.07812 -1.20312,2.89062 z m 13.02807,8.23441 0,-13.82816 2.10938,0 0,2.09375 q 0.79687,-1.46875 1.48437,-1.9375 0.6875,-0.46875 1.5,-0.46875 1.1875,0 2.40625,0.76563 l -0.79687,2.17187 q -0.85938,-0.51562 -1.71875,-0.51562 -0.76563,0 -1.39063,0.46875 -0.60937,0.45312 -0.85937,1.28125 -0.39063,1.25 -0.39063,2.7344 l 0,7.23438 -2.34375,0 z m 17.92362,-5.0625 2.29687,0.29687 q -0.375,2.39063 -1.9375,3.73438 -1.54687,1.34375 -3.8125,1.34375 -2.84375,0 -4.5625,-1.84375 -1.71875,-1.85938 -1.71875,-5.32813 0,-2.2344 0.73438,-3.90628 0.75,-1.6875 2.26562,-2.53125 1.51563,-0.84375 3.29688,-0.84375 2.25,0 3.67187,1.14063 1.4375,1.14062 1.84375,3.23437 l -2.28125,0.35938 q -0.32812,-1.39063 -1.15625,-2.09375 -0.8125,-0.70313 -1.98437,-0.70313 -1.78125,0 -2.89063,1.26563 -1.09375,1.26562 -1.09375,4.01565 0,2.78125 1.0625,4.04688 1.0625,1.26562 2.78125,1.26562 1.39063,0 2.3125,-0.84375 0.92188,-0.85937 1.17188,-2.60937 z m 3.4375,-1.84375 q 0,-3.84378 2.125,-5.68753 1.78125,-1.54688 4.34375,-1.54688 2.85937,0 4.65625,1.875 1.8125,1.85938 1.8125,5.15628 0,2.67188 -0.79688,4.20313 -0.79687,1.53125 -2.32812,2.375 -1.53125,0.84375 -3.34375,0.84375 -2.89063,0 -4.6875,-1.85938 -1.78125,-1.85937 -1.78125,-5.35937 z m 2.40625,0 q 0,2.65625 1.15625,3.98437 1.15625,1.3125 2.90625,1.3125 1.75,0 2.90625,-1.32812 1.15625,-1.32813 1.15625,-4.04688 0,-2.56253 -1.17188,-3.89065 -1.15625,-1.32813 -2.89062,-1.32813 -1.75,0 -2.90625,1.32813 -1.15625,1.3125 -1.15625,3.96878 z m 13.27804,6.90625 0,-13.82816 2.10938,0 0,1.96875 q 1.53125,-2.28125 4.40625,-2.28125 1.25,0 2.29687,0.45313 1.04688,0.45312 1.5625,1.1875 0.53125,0.71875 0.73438,1.71875 0.125,0.65625 0.125,2.28125 l 0,8.50003 -2.34375,0 0,-8.40628 q 0,-1.4375 -0.28125,-2.14063 -0.26563,-0.71875 -0.96875,-1.14062 -0.6875,-0.42188 -1.625,-0.42188 -1.48438,0 -2.57813,0.95313 -1.09375,0.95312 -1.09375,3.6094 l 0,7.54688 -2.34375,0 z m 14.82495,0 0,-13.82816 2.10938,0 0,1.96875 q 1.53125,-2.28125 4.40625,-2.28125 1.25,0 2.29687,0.45313 1.04688,0.45312 1.5625,1.1875 0.53125,0.71875 0.73438,1.71875 0.125,0.65625 0.125,2.28125 l 0,8.50003 -2.34375,0 0,-8.40628 q 0,-1.4375 -0.28125,-2.14063 -0.26563,-0.71875 -0.96875,-1.14062 -0.6875,-0.42188 -1.625,-0.42188 -1.48438,0 -2.57813,0.95313 -1.09375,0.95312 -1.09375,3.6094 l 0,7.54688 -2.34375,0 z m 24.2937,-4.45313 2.42188,0.29688 q -0.57813,2.125 -2.125,3.29687 -1.54688,1.17188 -3.95313,1.17188 -3.03125,0 -4.8125,-1.85938 -1.78125,-1.875 -1.78125,-5.25 0,-3.4844 1.79688,-5.40628 1.79687,-1.9375 4.67187,-1.9375 2.76563,0 4.51563,1.89063 1.76562,1.89062 1.76562,5.31253 0,0.20312 -0.0156,0.625 l -10.3125,0 q 0.14062,2.28125 1.29687,3.5 1.15625,1.20312 2.89063,1.20312 1.28125,0 2.1875,-0.67187 0.92187,-0.6875 1.45312,-2.17188 z m -7.6875,-3.78128 7.71875,0 q -0.15625,-1.75 -0.89062,-2.625 -1.125,-1.34375 -2.90625,-1.34375 -1.60938,0 -2.71875,1.07813 -1.09375,1.07812 -1.20313,2.89062 z m 22.07492,3.17191 2.29688,0.29687 q -0.375,2.39063 -1.9375,3.73438 -1.54688,1.34375 -3.8125,1.34375 -2.84375,0 -4.5625,-1.84375 -1.71875,-1.85938 -1.71875,-5.32813 0,-2.2344 0.73437,-3.90628 0.75,-1.6875 2.26563,-2.53125 1.51562,-0.84375 3.29687,-0.84375 2.25,0 3.67188,1.14063 1.4375,1.14062 1.84375,3.23437 l -2.28125,0.35938 q -0.32813,-1.39063 -1.15625,-2.09375 -0.8125,-0.70313 -1.98438,-0.70313 -1.78125,0 -2.89062,1.26563 -1.09375,1.26562 -1.09375,4.01565 0,2.78125 1.0625,4.04688 1.0625,1.26562 2.78125,1.26562 1.39062,0 2.3125,-0.84375 0.92187,-0.85937 1.17187,-2.60937 z m 9.42188,2.96875 0.32812,2.0625 q -0.98437,0.21875 -1.76562,0.21875 -1.26563,0 -1.96875,-0.40625 -0.70313,-0.40625 -1,-1.0625 -0.28125,-0.65625 -0.28125,-2.76563 l 0,-7.95315 -1.71875,0 0,-1.82813 1.71875,0 0,-3.42187 2.32812,-1.40625 0,4.82812 2.35938,0 0,1.82813 -2.35938,0 0,8.07815 q 0,1 0.125,1.29688 0.125,0.28125 0.40625,0.45312 0.28125,0.17188 0.79688,0.17188 0.39062,0 1.03125,-0.0937 z"
       id="path5051"
       inkscape:connector-curvature="0"
       style="fill:#000000;fill-rule:nonzero" />
    <path
       d="m 94.48819,359.0551 151.1811,0 0,75.59055 -151.1811,0 z"
       id="path5053"
       inkscape:connector-curvature="0"
       style="fill:#000000;fill-opacity:0;fill-rule:evenodd" />
    <path
       d="m 94.48819,359.0551 151.1811,0 0,75.59055 -151.1811,0 z"
       id="path5055"
       inkscape:connector-curvature="0"
       style="fill-rule:evenodd;stroke:#000000;stroke-width:1;stroke-linecap:butt;stroke-linejoin:round" />
    <path
       d="m 101.08266,406.45038 0,-19.07813 7.1875,0 q 1.90625,0 2.90625,0.17188 1.40625,0.23437 2.35938,0.90625 0.95312,0.65625 1.53125,1.84375 0.57812,1.17187 0.57812,2.59375 0,2.4375 -1.5625,4.125 -1.54687,1.6875 -5.59375,1.6875 l -4.89062,0 0,7.75 -2.51563,0 z m 2.51563,-10.01563 4.9375,0 q 2.45312,0 3.46875,-0.90625 1.03125,-0.90625 1.03125,-2.5625 0,-1.20312 -0.60938,-2.04687 -0.59375,-0.85938 -1.59375,-1.125 -0.625,-0.17188 -2.34375,-0.17188 l -4.89062,0 0,6.8125 z m 14.93576,10.01563 0,-13.82813 2.10937,0 0,2.09375 q 0.79688,-1.46875 1.48438,-1.9375 0.6875,-0.46875 1.5,-0.46875 1.1875,0 2.40625,0.76563 l -0.79688,2.17187 q -0.85937,-0.51562 -1.71875,-0.51562 -0.76562,0 -1.39062,0.46875 -0.60938,0.45312 -0.85938,1.28125 -0.39062,1.25 -0.39062,2.73437 l 0,7.23438 -2.34375,0 z m 8.03299,-6.90625 q 0,-3.84375 2.12499,-5.6875 1.78125,-1.54688 4.34375,-1.54688 2.85938,0 4.65625,1.875 1.8125,1.85938 1.8125,5.15625 0,2.67188 -0.79687,4.20313 -0.79688,1.53125 -2.32813,2.375 -1.53125,0.84375 -3.34375,0.84375 -2.89062,0 -4.6875,-1.85938 -1.78124,-1.85937 -1.78124,-5.35937 z m 2.40624,0 q 0,2.65625 1.15625,3.98437 1.15625,1.3125 2.90625,1.3125 1.75,0 2.90625,-1.32812 1.15625,-1.32813 1.15625,-4.04688 0,-2.5625 -1.17187,-3.89062 -1.15625,-1.32813 -2.89063,-1.32813 -1.75,0 -2.90625,1.32813 -1.15625,1.3125 -1.15625,3.96875 z m 22.30932,1.84375 2.29687,0.29687 q -0.375,2.39063 -1.9375,3.73438 -1.54687,1.34375 -3.8125,1.34375 -2.84375,0 -4.5625,-1.84375 -1.71875,-1.85938 -1.71875,-5.32813 0,-2.23437 0.73438,-3.90625 0.75,-1.6875 2.26562,-2.53125 1.51563,-0.84375 3.29688,-0.84375 2.25,0 3.67187,1.14063 1.4375,1.14062 1.84375,3.23437 l -2.28125,0.35938 q -0.32812,-1.39063 -1.15625,-2.09375 -0.8125,-0.70313 -1.98437,-0.70313 -1.78125,0 -2.89063,1.26563 -1.09375,1.26562 -1.09375,4.01562 0,2.78125 1.0625,4.04688 1.0625,1.26562 2.78125,1.26562 1.39063,0 2.3125,-0.84375 0.92188,-0.85937 1.17188,-2.60937 z m 13.76562,0.60937 2.42188,0.29688 q -0.57813,2.125 -2.125,3.29687 -1.54688,1.17188 -3.95313,1.17188 -3.03125,0 -4.8125,-1.85938 -1.78125,-1.875 -1.78125,-5.25 0,-3.48437 1.79688,-5.40625 1.79687,-1.9375 4.67187,-1.9375 2.76563,0 4.51563,1.89063 1.76562,1.89062 1.76562,5.3125 0,0.20312 -0.0156,0.625 l -10.3125,0 q 0.14062,2.28125 1.29687,3.5 1.15625,1.20312 2.89063,1.20312 1.28125,0 2.1875,-0.67187 0.92187,-0.6875 1.45312,-2.17188 z m -7.6875,-3.78125 7.71875,0 q -0.15625,-1.75 -0.89062,-2.625 -1.125,-1.34375 -2.90625,-1.34375 -1.60938,0 -2.71875,1.07813 -1.09375,1.07812 -1.20313,2.89062 z m 12.10619,4.10938 2.32812,-0.35938 q 0.1875,1.39063 1.07813,2.14063 0.89062,0.73437 2.5,0.73437 1.60937,0 2.39062,-0.65625 0.78125,-0.65625 0.78125,-1.54687 0,-0.79688 -0.6875,-1.25 -0.48437,-0.3125 -2.39062,-0.79688 -2.57813,-0.65625 -3.57813,-1.125 -1,-0.46875 -1.51562,-1.3125 -0.51563,-0.84375 -0.51563,-1.85937 0,-0.92188 0.42188,-1.70313 0.4375,-0.79687 1.15625,-1.3125 0.54687,-0.40625 1.48437,-0.6875 0.95313,-0.28125 2.03125,-0.28125 1.625,0 2.85938,0.46875 1.23437,0.46875 1.8125,1.28125 0.59375,0.79688 0.8125,2.14063 l -2.29688,0.3125 q -0.15625,-1.07813 -0.90625,-1.67188 -0.75,-0.59375 -2.10937,-0.59375 -1.60938,0 -2.3125,0.53125 -0.6875,0.53125 -0.6875,1.25 0,0.45313 0.29687,0.8125 0.28125,0.375 0.89063,0.625 0.35937,0.14063 2.07812,0.60938 2.48438,0.65625 3.46875,1.07812 0.98438,0.42188 1.53125,1.23438 0.5625,0.79687 0.5625,2 0,1.17187 -0.6875,2.21875 -0.67187,1.03125 -1.96875,1.59375 -1.28125,0.5625 -2.90625,0.5625 -2.70312,0 -4.125,-1.10938 -1.40625,-1.125 -1.79687,-3.32812 z m 13.32812,0 2.32813,-0.35938 q 0.1875,1.39063 1.07812,2.14063 0.89063,0.73437 2.5,0.73437 1.60938,0 2.39063,-0.65625 0.78125,-0.65625 0.78125,-1.54687 0,-0.79688 -0.6875,-1.25 -0.48438,-0.3125 -2.39063,-0.79688 -2.57812,-0.65625 -3.57812,-1.125 -1,-0.46875 -1.51563,-1.3125 -0.51562,-0.84375 -0.51562,-1.85937 0,-0.92188 0.42187,-1.70313 0.4375,-0.79687 1.15625,-1.3125 0.54688,-0.40625 1.48438,-0.6875 0.95312,-0.28125 2.03125,-0.28125 1.625,0 2.85937,0.46875 1.23438,0.46875 1.8125,1.28125 0.59375,0.79688 0.8125,2.14063 l -2.29687,0.3125 q -0.15625,-1.07813 -0.90625,-1.67188 -0.75,-0.59375 -2.10938,-0.59375 -1.60937,0 -2.3125,0.53125 -0.6875,0.53125 -0.6875,1.25 0,0.45313 0.29688,0.8125 0.28125,0.375 0.89062,0.625 0.35938,0.14063 2.07813,0.60938 2.48437,0.65625 3.46875,1.07812 0.98437,0.42188 1.53125,1.23438 0.5625,0.79687 0.5625,2 0,1.17187 -0.6875,2.21875 -0.67188,1.03125 -1.96875,1.59375 -1.28125,0.5625 -2.90625,0.5625 -2.70313,0 -4.125,-1.10938 -1.40625,-1.125 -1.79688,-3.32812 z m 13.40625,-2.78125 q 0,-3.84375 2.125,-5.6875 1.78125,-1.54688 4.34375,-1.54688 2.85938,0 4.65625,1.875 1.8125,1.85938 1.8125,5.15625 0,2.67188 -0.79687,4.20313 -0.79688,1.53125 -2.32813,2.375 -1.53125,0.84375 -3.34375,0.84375 -2.89062,0 -4.6875,-1.85938 -1.78125,-1.85937 -1.78125,-5.35937 z m 2.40625,0 q 0,2.65625 1.15625,3.98437 1.15625,1.3125 2.90625,1.3125 1.75,0 2.90625,-1.32812 1.15625,-1.32813 1.15625,-4.04688 0,-2.5625 -1.17187,-3.89062 -1.15625,-1.32813 -2.89063,-1.32813 -1.75,0 -2.90625,1.32813 -1.15625,1.3125 -1.15625,3.96875 z m 13.26244,6.90625 0,-13.82813 2.10937,0 0,2.09375 q 0.79688,-1.46875 1.48438,-1.9375 0.6875,-0.46875 1.5,-0.46875 1.1875,0 2.40625,0.76563 l -0.79688,2.17187 q -0.85937,-0.51562 -1.71875,-0.51562 -0.76562,0 -1.39062,0.46875 -0.60938,0.45312 -0.85938,1.28125 -0.39062,1.25 -0.39062,2.73437 l 0,7.23438 -2.34375,0 z"
       id="path5057"
       inkscape:connector-curvature="0"
       style="fill:#000000;fill-rule:nonzero" />
    <path
       d="m 283.48032,359.0551 151.18109,0 0,75.59055 -151.18109,0 z"
       id="path5059"
       inkscape:connector-curvature="0"
       style="fill:#000000;fill-opacity:0;fill-rule:evenodd" />
    <path
       d="m 283.48032,359.0551 151.18109,0 0,75.59055 -151.18109,0 z"
       id="path5061"
       inkscape:connector-curvature="0"
       style="fill-rule:evenodd;stroke:#000000;stroke-width:1;stroke-linecap:butt;stroke-linejoin:round" />
    <path
       d="m 290.07477,406.45038 0,-19.07813 7.1875,0 q 1.90625,0 2.90625,0.17188 1.40625,0.23437 2.35937,0.90625 0.95313,0.65625 1.53125,1.84375 0.57813,1.17187 0.57813,2.59375 0,2.4375 -1.5625,4.125 -1.54688,1.6875 -5.59375,1.6875 l -4.89063,0 0,7.75 -2.51562,0 z m 2.51562,-10.01563 4.9375,0 q 2.45313,0 3.46875,-0.90625 1.03125,-0.90625 1.03125,-2.5625 0,-1.20312 -0.60937,-2.04687 -0.59375,-0.85938 -1.59375,-1.125 -0.625,-0.17188 -2.34375,-0.17188 l -4.89063,0 0,6.8125 z m 14.93577,10.01563 0,-13.82813 2.10937,0 0,2.09375 q 0.79688,-1.46875 1.48438,-1.9375 0.6875,-0.46875 1.5,-0.46875 1.1875,0 2.40625,0.76563 l -0.79688,2.17187 q -0.85937,-0.51562 -1.71875,-0.51562 -0.76562,0 -1.39062,0.46875 -0.60938,0.45312 -0.85938,1.28125 -0.39062,1.25 -0.39062,2.73437 l 0,7.23438 -2.34375,0 z m 8.03302,-6.90625 q 0,-3.84375 2.125,-5.6875 1.78125,-1.54688 4.34375,-1.54688 2.85937,0 4.65625,1.875 1.8125,1.85938 1.8125,5.15625 0,2.67188 -0.79688,4.20313 -0.79687,1.53125 -2.32812,2.375 -1.53125,0.84375 -3.34375,0.84375 -2.89063,0 -4.6875,-1.85938 -1.78125,-1.85937 -1.78125,-5.35937 z m 2.40625,0 q 0,2.65625 1.15625,3.98437 1.15625,1.3125 2.90625,1.3125 1.75,0 2.90625,-1.32812 1.15625,-1.32813 1.15625,-4.04688 0,-2.5625 -1.17188,-3.89062 -1.15625,-1.32813 -2.89062,-1.32813 -1.75,0 -2.90625,1.32813 -1.15625,1.3125 -1.15625,3.96875 z m 22.30929,1.84375 2.29688,0.29687 q -0.375,2.39063 -1.9375,3.73438 -1.54688,1.34375 -3.8125,1.34375 -2.84375,0 -4.5625,-1.84375 -1.71875,-1.85938 -1.71875,-5.32813 0,-2.23437 0.73437,-3.90625 0.75,-1.6875 2.26563,-2.53125 1.51562,-0.84375 3.29687,-0.84375 2.25,0 3.67188,1.14063 1.4375,1.14062 1.84375,3.23437 l -2.28125,0.35938 q -0.32813,-1.39063 -1.15625,-2.09375 -0.8125,-0.70313 -1.98438,-0.70313 -1.78125,0 -2.89062,1.26563 -1.09375,1.26562 -1.09375,4.01562 0,2.78125 1.0625,4.04688 1.0625,1.26562 2.78125,1.26562 1.39062,0 2.3125,-0.84375 0.92187,-0.85937 1.17187,-2.60937 z m 13.76563,0.60937 2.42187,0.29688 q -0.57812,2.125 -2.125,3.29687 -1.54687,1.17188 -3.95312,1.17188 -3.03125,0 -4.8125,-1.85938 -1.78125,-1.875 -1.78125,-5.25 0,-3.48437 1.79687,-5.40625 1.79688,-1.9375 4.67188,-1.9375 2.76562,0 4.51562,1.89063 1.76563,1.89062 1.76563,5.3125 0,0.20312 -0.0156,0.625 l -10.3125,0 q 0.14063,2.28125 1.29688,3.5 1.15625,1.20312 2.89062,1.20312 1.28125,0 2.1875,-0.67187 0.92188,-0.6875 1.45313,-2.17188 z m -7.6875,-3.78125 7.71875,0 q -0.15625,-1.75 -0.89063,-2.625 -1.125,-1.34375 -2.90625,-1.34375 -1.60937,0 -2.71875,1.07813 -1.09375,1.07812 -1.20312,2.89062 z m 12.1062,4.10938 2.32812,-0.35938 q 0.1875,1.39063 1.07813,2.14063 0.89062,0.73437 2.5,0.73437 1.60937,0 2.39062,-0.65625 0.78125,-0.65625 0.78125,-1.54687 0,-0.79688 -0.6875,-1.25 -0.48437,-0.3125 -2.39062,-0.79688 -2.57813,-0.65625 -3.57813,-1.125 -1,-0.46875 -1.51562,-1.3125 -0.51563,-0.84375 -0.51563,-1.85937 0,-0.92188 0.42188,-1.70313 0.4375,-0.79687 1.15625,-1.3125 0.54687,-0.40625 1.48437,-0.6875 0.95313,-0.28125 2.03125,-0.28125 1.625,0 2.85938,0.46875 1.23437,0.46875 1.8125,1.28125 0.59375,0.79688 0.8125,2.14063 l -2.29688,0.3125 q -0.15625,-1.07813 -0.90625,-1.67188 -0.75,-0.59375 -2.10937,-0.59375 -1.60938,0 -2.3125,0.53125 -0.6875,0.53125 -0.6875,1.25 0,0.45313 0.29687,0.8125 0.28125,0.375 0.89063,0.625 0.35937,0.14063 2.07812,0.60938 2.48438,0.65625 3.46875,1.07812 0.98438,0.42188 1.53125,1.23438 0.5625,0.79687 0.5625,2 0,1.17187 -0.6875,2.21875 -0.67187,1.03125 -1.96875,1.59375 -1.28125,0.5625 -2.90625,0.5625 -2.70312,0 -4.125,-1.10938 -1.40625,-1.125 -1.79687,-3.32812 z m 13.32812,0 2.32813,-0.35938 q 0.1875,1.39063 1.07812,2.14063 0.89063,0.73437 2.5,0.73437 1.60938,0 2.39063,-0.65625 0.78125,-0.65625 0.78125,-1.54687 0,-0.79688 -0.6875,-1.25 -0.48438,-0.3125 -2.39063,-0.79688 -2.57812,-0.65625 -3.57812,-1.125 -1,-0.46875 -1.51563,-1.3125 -0.51562,-0.84375 -0.51562,-1.85937 0,-0.92188 0.42187,-1.70313 0.4375,-0.79687 1.15625,-1.3125 0.54688,-0.40625 1.48438,-0.6875 0.95312,-0.28125 2.03125,-0.28125 1.625,0 2.85937,0.46875 1.23438,0.46875 1.8125,1.28125 0.59375,0.79688 0.8125,2.14063 l -2.29687,0.3125 q -0.15625,-1.07813 -0.90625,-1.67188 -0.75,-0.59375 -2.10938,-0.59375 -1.60937,0 -2.3125,0.53125 -0.6875,0.53125 -0.6875,1.25 0,0.45313 0.29688,0.8125 0.28125,0.375 0.89062,0.625 0.35938,0.14063 2.07813,0.60938 2.48437,0.65625 3.46875,1.07812 0.98437,0.42188 1.53125,1.23438 0.5625,0.79687 0.5625,2 0,1.17187 -0.6875,2.21875 -0.67188,1.03125 -1.96875,1.59375 -1.28125,0.5625 -2.90625,0.5625 -2.70313,0 -4.125,-1.10938 -1.40625,-1.125 -1.79688,-3.32812 z m 13.40625,-2.78125 q 0,-3.84375 2.125,-5.6875 1.78125,-1.54688 4.34375,-1.54688 2.85938,0 4.65625,1.875 1.8125,1.85938 1.8125,5.15625 0,2.67188 -0.79687,4.20313 -0.79688,1.53125 -2.32813,2.375 -1.53125,0.84375 -3.34375,0.84375 -2.89062,0 -4.6875,-1.85938 -1.78125,-1.85937 -1.78125,-5.35937 z m 2.40625,0 q 0,2.65625 1.15625,3.98437 1.15625,1.3125 2.90625,1.3125 1.75,0 2.90625,-1.32812 1.15625,-1.32813 1.15625,-4.04688 0,-2.5625 -1.17187,-3.89062 -1.15625,-1.32813 -2.89063,-1.32813 -1.75,0 -2.90625,1.32813 -1.15625,1.3125 -1.15625,3.96875 z m 13.26242,6.90625 0,-13.82813 2.10938,0 0,2.09375 q 0.79687,-1.46875 1.48437,-1.9375 0.6875,-0.46875 1.5,-0.46875 1.1875,0 2.40625,0.76563 l -0.79687,2.17187 q -0.85938,-0.51562 -1.71875,-0.51562 -0.76563,0 -1.39063,0.46875 -0.60937,0.45312 -0.85937,1.28125 -0.39063,1.25 -0.39063,2.73437 l 0,7.23438 -2.34375,0 z"
       id="path5063"
       inkscape:connector-curvature="0"
       style="fill:#000000;fill-rule:nonzero" />
    <path
       d="m 472.4567,359.0551 151.18112,0 0,75.59055 -151.18112,0 z"
       id="path5065"
       inkscape:connector-curvature="0"
       style="fill:#000000;fill-opacity:0;fill-rule:evenodd" />
    <path
       d="m 472.4567,359.0551 151.18112,0 0,75.59055 -151.18112,0 z"
       id="path5067"
       inkscape:connector-curvature="0"
       style="fill-rule:evenodd;stroke:#000000;stroke-width:1;stroke-linecap:butt;stroke-linejoin:round" />
    <path
       d="m 479.05115,406.45038 0,-19.07813 7.1875,0 q 1.90625,0 2.90625,0.17188 1.40625,0.23437 2.35937,0.90625 0.95313,0.65625 1.53125,1.84375 0.57813,1.17187 0.57813,2.59375 0,2.4375 -1.5625,4.125 -1.54688,1.6875 -5.59375,1.6875 l -4.89063,0 0,7.75 -2.51562,0 z m 2.51562,-10.01563 4.9375,0 q 2.45313,0 3.46875,-0.90625 1.03125,-0.90625 1.03125,-2.5625 0,-1.20312 -0.60937,-2.04687 -0.59375,-0.85938 -1.59375,-1.125 -0.625,-0.17188 -2.34375,-0.17188 l -4.89063,0 0,6.8125 z m 14.93577,10.01563 0,-13.82813 2.10937,0 0,2.09375 q 0.79688,-1.46875 1.48438,-1.9375 0.6875,-0.46875 1.5,-0.46875 1.1875,0 2.40625,0.76563 l -0.79688,2.17187 q -0.85937,-0.51562 -1.71875,-0.51562 -0.76562,0 -1.39062,0.46875 -0.60938,0.45312 -0.85938,1.28125 -0.39062,1.25 -0.39062,2.73437 l 0,7.23438 -2.34375,0 z m 8.03298,-6.90625 q 0,-3.84375 2.125,-5.6875 1.78125,-1.54688 4.34375,-1.54688 2.85938,0 4.65625,1.875 1.8125,1.85938 1.8125,5.15625 0,2.67188 -0.79687,4.20313 -0.79688,1.53125 -2.32813,2.375 -1.53125,0.84375 -3.34375,0.84375 -2.89062,0 -4.6875,-1.85938 -1.78125,-1.85937 -1.78125,-5.35937 z m 2.40625,0 q 0,2.65625 1.15625,3.98437 1.15625,1.3125 2.90625,1.3125 1.75,0 2.90625,-1.32812 1.15625,-1.32813 1.15625,-4.04688 0,-2.5625 -1.17187,-3.89062 -1.15625,-1.32813 -2.89063,-1.32813 -1.75,0 -2.90625,1.32813 -1.15625,1.3125 -1.15625,3.96875 z m 22.30933,1.84375 2.29688,0.29687 q -0.375,2.39063 -1.9375,3.73438 -1.54688,1.34375 -3.8125,1.34375 -2.84375,0 -4.5625,-1.84375 -1.71875,-1.85938 -1.71875,-5.32813 0,-2.23437 0.73437,-3.90625 0.75,-1.6875 2.26563,-2.53125 1.51562,-0.84375 3.29687,-0.84375 2.25,0 3.67188,1.14063 1.4375,1.14062 1.84375,3.23437 l -2.28125,0.35938 q -0.32813,-1.39063 -1.15625,-2.09375 -0.8125,-0.70313 -1.98438,-0.70313 -1.78125,0 -2.89062,1.26563 -1.09375,1.26562 -1.09375,4.01562 0,2.78125 1.0625,4.04688 1.0625,1.26562 2.78125,1.26562 1.39062,0 2.3125,-0.84375 0.92187,-0.85937 1.17187,-2.60937 z m 13.76563,0.60937 2.42187,0.29688 q -0.57812,2.125 -2.125,3.29687 -1.54687,1.17188 -3.95312,1.17188 -3.03125,0 -4.8125,-1.85938 -1.78125,-1.875 -1.78125,-5.25 0,-3.48437 1.79687,-5.40625 1.79688,-1.9375 4.67188,-1.9375 2.76562,0 4.51562,1.89063 1.76563,1.89062 1.76563,5.3125 0,0.20312 -0.0156,0.625 l -10.3125,0 q 0.14063,2.28125 1.29688,3.5 1.15625,1.20312 2.89062,1.20312 1.28125,0 2.1875,-0.67187 0.92188,-0.6875 1.45313,-2.17188 z m -7.6875,-3.78125 7.71875,0 q -0.15625,-1.75 -0.89063,-2.625 -1.125,-1.34375 -2.90625,-1.34375 -1.60937,0 -2.71875,1.07813 -1.09375,1.07812 -1.20312,2.89062 z m 12.1062,4.10938 2.32812,-0.35938 q 0.1875,1.39063 1.07813,2.14063 0.89062,0.73437 2.5,0.73437 1.60937,0 2.39062,-0.65625 0.78125,-0.65625 0.78125,-1.54687 0,-0.79688 -0.6875,-1.25 -0.48437,-0.3125 -2.39062,-0.79688 -2.57813,-0.65625 -3.57813,-1.125 -1,-0.46875 -1.51562,-1.3125 -0.51563,-0.84375 -0.51563,-1.85937 0,-0.92188 0.42188,-1.70313 0.4375,-0.79687 1.15625,-1.3125 0.54687,-0.40625 1.48437,-0.6875 0.95313,-0.28125 2.03125,-0.28125 1.625,0 2.85938,0.46875 1.23437,0.46875 1.8125,1.28125 0.59375,0.79688 0.8125,2.14063 l -2.29688,0.3125 q -0.15625,-1.07813 -0.90625,-1.67188 -0.75,-0.59375 -2.10937,-0.59375 -1.60938,0 -2.3125,0.53125 -0.6875,0.53125 -0.6875,1.25 0,0.45313 0.29687,0.8125 0.28125,0.375 0.89063,0.625 0.35937,0.14063 2.07812,0.60938 2.48438,0.65625 3.46875,1.07812 0.98438,0.42188 1.53125,1.23438 0.5625,0.79687 0.5625,2 0,1.17187 -0.6875,2.21875 -0.67187,1.03125 -1.96875,1.59375 -1.28125,0.5625 -2.90625,0.5625 -2.70312,0 -4.125,-1.10938 -1.40625,-1.125 -1.79687,-3.32812 z m 13.32812,0 2.32813,-0.35938 q 0.1875,1.39063 1.07812,2.14063 0.89063,0.73437 2.5,0.73437 1.60938,0 2.39063,-0.65625 0.78125,-0.65625 0.78125,-1.54687 0,-0.79688 -0.6875,-1.25 -0.48438,-0.3125 -2.39063,-0.79688 -2.57812,-0.65625 -3.57812,-1.125 -1,-0.46875 -1.51563,-1.3125 -0.51562,-0.84375 -0.51562,-1.85937 0,-0.92188 0.42187,-1.70313 0.4375,-0.79687 1.15625,-1.3125 0.54688,-0.40625 1.48438,-0.6875 0.95312,-0.28125 2.03125,-0.28125 1.625,0 2.85937,0.46875 1.23438,0.46875 1.8125,1.28125 0.59375,0.79688 0.8125,2.14063 l -2.29687,0.3125 q -0.15625,-1.07813 -0.90625,-1.67188 -0.75,-0.59375 -2.10938,-0.59375 -1.60937,0 -2.3125,0.53125 -0.6875,0.53125 -0.6875,1.25 0,0.45313 0.29688,0.8125 0.28125,0.375 0.89062,0.625 0.35938,0.14063 2.07813,0.60938 2.48437,0.65625 3.46875,1.07812 0.98437,0.42188 1.53125,1.23438 0.5625,0.79687 0.5625,2 0,1.17187 -0.6875,2.21875 -0.67188,1.03125 -1.96875,1.59375 -1.28125,0.5625 -2.90625,0.5625 -2.70313,0 -4.125,-1.10938 -1.40625,-1.125 -1.79688,-3.32812 z m 13.40625,-2.78125 q 0,-3.84375 2.125,-5.6875 1.78125,-1.54688 4.34375,-1.54688 2.85938,0 4.65625,1.875 1.8125,1.85938 1.8125,5.15625 0,2.67188 -0.79687,4.20313 -0.79688,1.53125 -2.32813,2.375 -1.53125,0.84375 -3.34375,0.84375 -2.89062,0 -4.6875,-1.85938 -1.78125,-1.85937 -1.78125,-5.35937 z m 2.40625,0 q 0,2.65625 1.15625,3.98437 1.15625,1.3125 2.90625,1.3125 1.75,0 2.90625,-1.32812 1.15625,-1.32813 1.15625,-4.04688 0,-2.5625 -1.17187,-3.89062 -1.15625,-1.32813 -2.89063,-1.32813 -1.75,0 -2.90625,1.32813 -1.15625,1.3125 -1.15625,3.96875 z m 13.26239,6.90625 0,-13.82813 2.10938,0 0,2.09375 q 0.79687,-1.46875 1.48437,-1.9375 0.6875,-0.46875 1.5,-0.46875 1.1875,0 2.40625,0.76563 l -0.79687,2.17187 q -0.85938,-0.51562 -1.71875,-0.51562 -0.76563,0 -1.39063,0.46875 -0.60937,0.45312 -0.85937,1.28125 -0.39063,1.25 -0.39063,2.73437 l 0,7.23438 -2.34375,0 z"
       id="path5069"
       inkscape:connector-curvature="0"
       style="fill:#000000;fill-rule:nonzero" />
    <path
       d="m 661.43304,359.0551 151.18115,0 0,75.59055 -151.18115,0 z"
       id="path5071"
       inkscape:connector-curvature="0"
       style="fill:#000000;fill-opacity:0;fill-rule:evenodd" />
    <path
       d="m 661.43304,359.0551 151.18115,0 0,75.59055 -151.18115,0 z"
       id="path5073"
       inkscape:connector-curvature="0"
       style="fill-rule:evenodd;stroke:#000000;stroke-width:1;stroke-linecap:butt;stroke-linejoin:round" />
    <path
       d="m 668.0275,406.45038 0,-19.07813 7.1875,0 q 1.90625,0 2.90625,0.17188 1.40625,0.23437 2.35938,0.90625 0.95312,0.65625 1.53125,1.84375 0.57812,1.17187 0.57812,2.59375 0,2.4375 -1.5625,4.125 -1.54687,1.6875 -5.59375,1.6875 l -4.89062,0 0,7.75 -2.51563,0 z m 2.51563,-10.01563 4.9375,0 q 2.45312,0 3.46875,-0.90625 1.03125,-0.90625 1.03125,-2.5625 0,-1.20312 -0.60938,-2.04687 -0.59375,-0.85938 -1.59375,-1.125 -0.625,-0.17188 -2.34375,-0.17188 l -4.89062,0 0,6.8125 z m 14.93579,10.01563 0,-13.82813 2.10937,0 0,2.09375 q 0.79688,-1.46875 1.48438,-1.9375 0.6875,-0.46875 1.5,-0.46875 1.1875,0 2.40625,0.76563 l -0.79688,2.17187 q -0.85937,-0.51562 -1.71875,-0.51562 -0.76562,0 -1.39062,0.46875 -0.60938,0.45312 -0.85938,1.28125 -0.39062,1.25 -0.39062,2.73437 l 0,7.23438 -2.34375,0 z m 8.03296,-6.90625 q 0,-3.84375 2.125,-5.6875 1.78125,-1.54688 4.34375,-1.54688 2.85937,0 4.65625,1.875 1.8125,1.85938 1.8125,5.15625 0,2.67188 -0.79688,4.20313 -0.79687,1.53125 -2.32812,2.375 -1.53125,0.84375 -3.34375,0.84375 -2.89063,0 -4.6875,-1.85938 -1.78125,-1.85937 -1.78125,-5.35937 z m 2.40625,0 q 0,2.65625 1.15625,3.98437 1.15625,1.3125 2.90625,1.3125 1.75,0 2.90625,-1.32812 1.15625,-1.32813 1.15625,-4.04688 0,-2.5625 -1.17188,-3.89062 -1.15625,-1.32813 -2.89062,-1.32813 -1.75,0 -2.90625,1.32813 -1.15625,1.3125 -1.15625,3.96875 z m 22.30932,1.84375 2.29688,0.29687 q -0.375,2.39063 -1.9375,3.73438 -1.54688,1.34375 -3.8125,1.34375 -2.84375,0 -4.5625,-1.84375 -1.71875,-1.85938 -1.71875,-5.32813 0,-2.23437 0.73437,-3.90625 0.75,-1.6875 2.26563,-2.53125 1.51562,-0.84375 3.29687,-0.84375 2.25,0 3.67188,1.14063 1.4375,1.14062 1.84375,3.23437 l -2.28125,0.35938 q -0.32813,-1.39063 -1.15625,-2.09375 -0.8125,-0.70313 -1.98438,-0.70313 -1.78125,0 -2.89062,1.26563 -1.09375,1.26562 -1.09375,4.01562 0,2.78125 1.0625,4.04688 1.0625,1.26562 2.78125,1.26562 1.39062,0 2.3125,-0.84375 0.92187,-0.85937 1.17187,-2.60937 z m 13.76563,0.60937 2.42187,0.29688 q -0.57812,2.125 -2.125,3.29687 -1.54687,1.17188 -3.95312,1.17188 -3.03125,0 -4.8125,-1.85938 -1.78125,-1.875 -1.78125,-5.25 0,-3.48437 1.79687,-5.40625 1.79688,-1.9375 4.67188,-1.9375 2.76562,0 4.51562,1.89063 1.76563,1.89062 1.76563,5.3125 0,0.20312 -0.0156,0.625 l -10.3125,0 q 0.14063,2.28125 1.29688,3.5 1.15625,1.20312 2.89062,1.20312 1.28125,0 2.1875,-0.67187 0.92188,-0.6875 1.45313,-2.17188 z m -7.6875,-3.78125 7.71875,0 q -0.15625,-1.75 -0.89063,-2.625 -1.125,-1.34375 -2.90625,-1.34375 -1.60937,0 -2.71875,1.07813 -1.09375,1.07812 -1.20312,2.89062 z m 12.1062,4.10938 2.32812,-0.35938 q 0.1875,1.39063 1.07813,2.14063 0.89062,0.73437 2.5,0.73437 1.60937,0 2.39062,-0.65625 0.78125,-0.65625 0.78125,-1.54687 0,-0.79688 -0.6875,-1.25 -0.48437,-0.3125 -2.39062,-0.79688 -2.57813,-0.65625 -3.57813,-1.125 -1,-0.46875 -1.51562,-1.3125 -0.51563,-0.84375 -0.51563,-1.85937 0,-0.92188 0.42188,-1.70313 0.4375,-0.79687 1.15625,-1.3125 0.54687,-0.40625 1.48437,-0.6875 0.95313,-0.28125 2.03125,-0.28125 1.625,0 2.85938,0.46875 1.23437,0.46875 1.8125,1.28125 0.59375,0.79688 0.8125,2.14063 l -2.29688,0.3125 q -0.15625,-1.07813 -0.90625,-1.67188 -0.75,-0.59375 -2.10937,-0.59375 -1.60938,0 -2.3125,0.53125 -0.6875,0.53125 -0.6875,1.25 0,0.45313 0.29687,0.8125 0.28125,0.375 0.89063,0.625 0.35937,0.14063 2.07812,0.60938 2.48438,0.65625 3.46875,1.07812 0.98438,0.42188 1.53125,1.23438 0.5625,0.79687 0.5625,2 0,1.17187 -0.6875,2.21875 -0.67187,1.03125 -1.96875,1.59375 -1.28125,0.5625 -2.90625,0.5625 -2.70312,0 -4.125,-1.10938 -1.40625,-1.125 -1.79687,-3.32812 z m 13.32812,0 2.32813,-0.35938 q 0.1875,1.39063 1.07812,2.14063 0.89063,0.73437 2.5,0.73437 1.60938,0 2.39063,-0.65625 0.78125,-0.65625 0.78125,-1.54687 0,-0.79688 -0.6875,-1.25 -0.48438,-0.3125 -2.39063,-0.79688 -2.57812,-0.65625 -3.57812,-1.125 -1,-0.46875 -1.51563,-1.3125 -0.51562,-0.84375 -0.51562,-1.85937 0,-0.92188 0.42187,-1.70313 0.4375,-0.79687 1.15625,-1.3125 0.54688,-0.40625 1.48438,-0.6875 0.95312,-0.28125 2.03125,-0.28125 1.625,0 2.85937,0.46875 1.23438,0.46875 1.8125,1.28125 0.59375,0.79688 0.8125,2.14063 l -2.29687,0.3125 q -0.15625,-1.07813 -0.90625,-1.67188 -0.75,-0.59375 -2.10938,-0.59375 -1.60937,0 -2.3125,0.53125 -0.6875,0.53125 -0.6875,1.25 0,0.45313 0.29688,0.8125 0.28125,0.375 0.89062,0.625 0.35938,0.14063 2.07813,0.60938 2.48437,0.65625 3.46875,1.07812 0.98437,0.42188 1.53125,1.23438 0.5625,0.79687 0.5625,2 0,1.17187 -0.6875,2.21875 -0.67188,1.03125 -1.96875,1.59375 -1.28125,0.5625 -2.90625,0.5625 -2.70313,0 -4.125,-1.10938 -1.40625,-1.125 -1.79688,-3.32812 z m 13.40625,-2.78125 q 0,-3.84375 2.125,-5.6875 1.78125,-1.54688 4.34375,-1.54688 2.85938,0 4.65625,1.875 1.8125,1.85938 1.8125,5.15625 0,2.67188 -0.79687,4.20313 -0.79688,1.53125 -2.32813,2.375 -1.53125,0.84375 -3.34375,0.84375 -2.89062,0 -4.6875,-1.85938 -1.78125,-1.85937 -1.78125,-5.35937 z m 2.40625,0 q 0,2.65625 1.15625,3.98437 1.15625,1.3125 2.90625,1.3125 1.75,0 2.90625,-1.32812 1.15625,-1.32813 1.15625,-4.04688 0,-2.5625 -1.17187,-3.89062 -1.15625,-1.32813 -2.89063,-1.32813 -1.75,0 -2.90625,1.32813 -1.15625,1.3125 -1.15625,3.96875 z m 13.26239,6.90625 0,-13.82813 2.10938,0 0,2.09375 q 0.79687,-1.46875 1.48437,-1.9375 0.6875,-0.46875 1.5,-0.46875 1.1875,0 2.40625,0.76563 l -0.79687,2.17187 q -0.85938,-0.51562 -1.71875,-0.51562 -0.76563,0 -1.39063,0.46875 -0.60937,0.45312 -0.85937,1.28125 -0.39063,1.25 -0.39063,2.73437 l 0,7.23438 -2.34375,0 z"
       id="path5075"
       inkscape:connector-curvature="0"
       style="fill:#000000;fill-rule:nonzero" />
    <path
       d="m 94.48819,239.36246 0,0 c 0,-6.95805 5.64062,-12.59868 12.59868,-12.59868 l 125.98375,0 c 3.34137,0 6.5459,1.32736 8.9086,3.69006 2.36272,2.36272 3.69008,5.56723 3.69008,8.90862 l 0,50.39319 c 0,6.95807 -5.64063,12.59869 -12.59868,12.59869 l -125.98375,0 c -6.95806,0 -12.59868,-5.64062 -12.59868,-12.59869 z"
       id="path5077"
       inkscape:connector-curvature="0"
       style="fill:#000000;fill-opacity:0;fill-rule:evenodd" />
    <path
       d="m 94.48819,239.36246 0,0 c 0,-6.95805 5.64062,-12.59868 12.59868,-12.59868 l 125.98375,0 c 3.34137,0 6.5459,1.32736 8.9086,3.69006 2.36272,2.36272 3.69008,5.56723 3.69008,8.90862 l 0,50.39319 c 0,6.95807 -5.64063,12.59869 -12.59868,12.59869 l -125.98375,0 c -6.95806,0 -12.59868,-5.64062 -12.59868,-12.59869 z"
       id="path5079"
       inkscape:connector-curvature="0"
       style="fill-rule:evenodd;stroke:#000000;stroke-width:1;stroke-linecap:butt;stroke-linejoin:round" />
    <path
       d="m 123.93089,274.15906 0,-19.07813 3.79687,0 4.51562,13.5 q 0.625,1.89063 0.90625,2.82813 0.32812,-1.03125 1.01562,-3.0625 l 4.57813,-13.26563 3.39062,0 0,19.07813 -2.4375,0 0,-15.96875 -5.54687,15.96875 -2.26563,0 -5.53124,-16.25 0,16.25 -2.42187,0 z m 31.43923,-4.45313 2.42187,0.29688 q -0.57812,2.125 -2.125,3.29687 -1.54687,1.17188 -3.95312,1.17188 -3.03125,0 -4.8125,-1.85938 -1.78125,-1.875 -1.78125,-5.25 0,-3.48437 1.79687,-5.40625 1.79688,-1.9375 4.67188,-1.9375 2.76562,0 4.51562,1.89063 1.76563,1.89062 1.76563,5.3125 0,0.20312 -0.0156,0.625 l -10.3125,0 q 0.14063,2.28125 1.29688,3.5 1.15625,1.20312 2.89062,1.20312 1.28125,0 2.1875,-0.67187 0.92188,-0.6875 1.45313,-2.17188 z m -7.6875,-3.78125 7.71875,0 q -0.15625,-1.75 -0.89063,-2.625 -1.125,-1.34375 -2.90625,-1.34375 -1.60937,0 -2.71875,1.07813 -1.09375,1.07812 -1.20312,2.89062 z m 13.04368,8.23438 0,-13.82813 2.10939,0 0,1.9375 q 0.64063,-1.01562 1.71875,-1.625 1.09375,-0.625 2.46875,-0.625 1.53125,0 2.51563,0.64063 0.98437,0.64062 1.39062,1.78125 1.64063,-2.42188 4.26563,-2.42188 2.0625,0 3.15625,1.14063 1.10937,1.14062 1.10937,3.51562 l 0,9.48438 -2.32812,0 0,-8.70313 q 0,-1.40625 -0.23438,-2.01562 -0.21875,-0.625 -0.82812,-1 -0.59375,-0.39063 -1.39063,-0.39063 -1.46875,0 -2.4375,0.96875 -0.95312,0.96875 -0.95312,3.10938 l 0,8.03125 -2.34375,0 0,-8.98438 q 0,-1.5625 -0.57813,-2.34375 -0.5625,-0.78125 -1.875,-0.78125 -0.98437,0 -1.82812,0.53125 -0.82813,0.51563 -1.21875,1.51563 -0.375,1 -0.375,2.89062 l 0,7.17188 -2.34377,0 z m 21.34551,-6.90625 q 0,-3.84375 2.125,-5.6875 1.78125,-1.54688 4.34375,-1.54688 2.85937,0 4.65625,1.875 1.8125,1.85938 1.8125,5.15625 0,2.67188 -0.79688,4.20313 -0.79687,1.53125 -2.32812,2.375 -1.53125,0.84375 -3.34375,0.84375 -2.89063,0 -4.6875,-1.85938 -1.78125,-1.85937 -1.78125,-5.35937 z m 2.40625,0 q 0,2.65625 1.15625,3.98437 1.15625,1.3125 2.90625,1.3125 1.75,0 2.90625,-1.32812 1.15625,-1.32813 1.15625,-4.04688 0,-2.5625 -1.17188,-3.89062 -1.15625,-1.32813 -2.89062,-1.32813 -1.75,0 -2.90625,1.32813 -1.15625,1.3125 -1.15625,3.96875 z m 13.26243,6.90625 0,-13.82813 2.10938,0 0,2.09375 q 0.79687,-1.46875 1.48437,-1.9375 0.6875,-0.46875 1.5,-0.46875 1.1875,0 2.40625,0.76563 l -0.79687,2.17187 q -0.85938,-0.51562 -1.71875,-0.51562 -0.76563,0 -1.39063,0.46875 -0.60937,0.45312 -0.85937,1.28125 -0.39063,1.25 -0.39063,2.73437 l 0,7.23438 -2.34375,0 z m 8.79862,5.32812 -0.26563,-2.20312 q 0.76563,0.20312 1.34375,0.20312 0.78125,0 1.25,-0.26562 0.46875,-0.25 0.76563,-0.71875 0.21875,-0.35938 0.71875,-1.75 0.0625,-0.1875 0.20312,-0.5625 l -5.25,-13.85938 2.53125,0 2.875,8.01563 q 0.5625,1.51562 1,3.20312 0.40625,-1.625 0.96875,-3.15625 l 2.95313,-8.0625 2.34375,0 -5.26563,14.0625 q -0.84375,2.28125 -1.3125,3.14063 -0.625,1.15625 -1.4375,1.6875 -0.79687,0.54687 -1.92187,0.54687 -0.67188,0 -1.5,-0.28125 z"
       id="path5081"
       inkscape:connector-curvature="0"
       style="fill:#000000;fill-rule:nonzero" />
    <path
       d="m 283.48032,239.37033 0,0 c 0,-6.95805 5.64062,-12.59868 12.59866,-12.59868 l 125.98377,0 c 3.34137,0 6.5459,1.32736 8.9086,3.69006 2.3627,2.36272 3.69006,5.56725 3.69006,8.90862 l 0,50.39319 c 0,6.95807 -5.64062,12.59869 -12.59866,12.59869 l -125.98377,0 c -6.95803,0 -12.59866,-5.64062 -12.59866,-12.59869 z"
       id="path5083"
       inkscape:connector-curvature="0"
       style="fill:#000000;fill-opacity:0;fill-rule:evenodd" />
    <path
       d="m 283.48032,239.37033 0,0 c 0,-6.95805 5.64062,-12.59868 12.59866,-12.59868 l 125.98377,0 c 3.34137,0 6.5459,1.32736 8.9086,3.69006 2.3627,2.36272 3.69006,5.56725 3.69006,8.90862 l 0,50.39319 c 0,6.95807 -5.64062,12.59869 -12.59866,12.59869 l -125.98377,0 c -6.95803,0 -12.59866,-5.64062 -12.59866,-12.59869 z"
       id="path5085"
       inkscape:connector-curvature="0"
       style="fill-rule:evenodd;stroke:#000000;stroke-width:1;stroke-linecap:butt;stroke-linejoin:round" />
    <path
       d="m 312.923,274.16693 0,-19.07813 3.79687,0 4.51563,13.5 q 0.625,1.89063 0.90625,2.82813 0.32812,-1.03125 1.01562,-3.0625 l 4.57813,-13.26563 3.39062,0 0,19.07813 -2.4375,0 0,-15.96875 -5.54687,15.96875 -2.26563,0 -5.53125,-16.25 0,16.25 -2.42187,0 z m 31.43924,-4.45313 2.42187,0.29688 q -0.57812,2.125 -2.125,3.29687 -1.54687,1.17188 -3.95312,1.17188 -3.03125,0 -4.8125,-1.85938 -1.78125,-1.875 -1.78125,-5.25 0,-3.48437 1.79687,-5.40625 1.79688,-1.9375 4.67188,-1.9375 2.76562,0 4.51562,1.89063 1.76563,1.89062 1.76563,5.3125 0,0.20312 -0.0156,0.625 l -10.3125,0 q 0.14063,2.28125 1.29688,3.5 1.15625,1.20312 2.89062,1.20312 1.28125,0 2.1875,-0.67187 0.92188,-0.6875 1.45313,-2.17188 z m -7.6875,-3.78125 7.71875,0 q -0.15625,-1.75 -0.89063,-2.625 -1.125,-1.34375 -2.90625,-1.34375 -1.60937,0 -2.71875,1.07813 -1.09375,1.07812 -1.20312,2.89062 z m 13.0437,8.23438 0,-13.82813 2.10938,0 0,1.9375 q 0.64062,-1.01562 1.71875,-1.625 1.09375,-0.625 2.46875,-0.625 1.53125,0 2.51562,0.64063 0.98438,0.64062 1.39063,1.78125 1.64062,-2.42188 4.26562,-2.42188 2.0625,0 3.15625,1.14063 1.10938,1.14062 1.10938,3.51562 l 0,9.48438 -2.32813,0 0,-8.70313 q 0,-1.40625 -0.23437,-2.01562 -0.21875,-0.625 -0.82813,-1 -0.59375,-0.39063 -1.39062,-0.39063 -1.46875,0 -2.4375,0.96875 -0.95313,0.96875 -0.95313,3.10938 l 0,8.03125 -2.34375,0 0,-8.98438 q 0,-1.5625 -0.57812,-2.34375 -0.5625,-0.78125 -1.875,-0.78125 -0.98438,0 -1.82813,0.53125 -0.82812,0.51563 -1.21875,1.51563 -0.375,1 -0.375,2.89062 l 0,7.17188 -2.34375,0 z m 21.34549,-6.90625 q 0,-3.84375 2.125,-5.6875 1.78125,-1.54688 4.34375,-1.54688 2.85938,0 4.65625,1.875 1.8125,1.85938 1.8125,5.15625 0,2.67188 -0.79687,4.20313 -0.79688,1.53125 -2.32813,2.375 -1.53125,0.84375 -3.34375,0.84375 -2.89062,0 -4.6875,-1.85938 -1.78125,-1.85937 -1.78125,-5.35937 z m 2.40625,0 q 0,2.65625 1.15625,3.98437 1.15625,1.3125 2.90625,1.3125 1.75,0 2.90625,-1.32812 1.15625,-1.32813 1.15625,-4.04688 0,-2.5625 -1.17187,-3.89062 -1.15625,-1.32813 -2.89063,-1.32813 -1.75,0 -2.90625,1.32813 -1.15625,1.3125 -1.15625,3.96875 z m 13.26242,6.90625 0,-13.82813 2.10938,0 0,2.09375 q 0.79687,-1.46875 1.48437,-1.9375 0.6875,-0.46875 1.5,-0.46875 1.1875,0 2.40625,0.76563 l -0.79687,2.17187 q -0.85938,-0.51562 -1.71875,-0.51562 -0.76563,0 -1.39063,0.46875 -0.60937,0.45312 -0.85937,1.28125 -0.39063,1.25 -0.39063,2.73437 l 0,7.23438 -2.34375,0 z m 8.79862,5.32812 -0.26563,-2.20312 q 0.76563,0.20312 1.34375,0.20312 0.78125,0 1.25,-0.26562 0.46875,-0.25 0.76563,-0.71875 0.21875,-0.35938 0.71875,-1.75 0.0625,-0.1875 0.20312,-0.5625 l -5.25,-13.85938 2.53125,0 2.875,8.01563 q 0.5625,1.51562 1,3.20312 0.40625,-1.625 0.96875,-3.15625 l 2.95313,-8.0625 2.34375,0 -5.26563,14.0625 q -0.84375,2.28125 -1.3125,3.14063 -0.625,1.15625 -1.4375,1.6875 -0.79687,0.54687 -1.92187,0.54687 -0.67188,0 -1.5,-0.28125 z"
       id="path5087"
       inkscape:connector-curvature="0"
       style="fill:#000000;fill-rule:nonzero" />
    <path
       d="m 472.4567,239.37033 0,0 c 0,-6.95805 5.64062,-12.59868 12.59866,-12.59868 l 125.98377,0 c 3.34137,0 6.5459,1.32736 8.90863,3.69006 2.36267,2.36272 3.69006,5.56725 3.69006,8.90862 l 0,50.39319 c 0,6.95807 -5.64062,12.59869 -12.59869,12.59869 l -125.98377,0 c -6.95804,0 -12.59866,-5.64062 -12.59866,-12.59869 z"
       id="path5089"
       inkscape:connector-curvature="0"
       style="fill:#000000;fill-opacity:0;fill-rule:evenodd" />
    <path
       d="m 472.4567,239.37033 0,0 c 0,-6.95805 5.64062,-12.59868 12.59866,-12.59868 l 125.98377,0 c 3.34137,0 6.5459,1.32736 8.90863,3.69006 2.36267,2.36272 3.69006,5.56725 3.69006,8.90862 l 0,50.39319 c 0,6.95807 -5.64062,12.59869 -12.59869,12.59869 l -125.98377,0 c -6.95804,0 -12.59866,-5.64062 -12.59866,-12.59869 z"
       id="path5091"
       inkscape:connector-curvature="0"
       style="fill-rule:evenodd;stroke:#000000;stroke-width:1;stroke-linecap:butt;stroke-linejoin:round" />
    <path
       d="m 501.89938,274.16693 0,-19.07813 3.79687,0 4.51563,13.5 q 0.625,1.89063 0.90625,2.82813 0.32812,-1.03125 1.01566,-3.0625 l 4.57812,-13.26563 3.39063,0 0,19.07813 -2.4375,0 0,-15.96875 -5.54688,15.96875 -2.26565,0 -5.53125,-16.25 0,16.25 -2.42188,0 z m 31.43924,-4.45313 2.42187,0.29688 q -0.57812,2.125 -2.125,3.29687 -1.54687,1.17188 -3.95312,1.17188 -3.03125,0 -4.8125,-1.85938 -1.78125,-1.875 -1.78125,-5.25 0,-3.48437 1.79687,-5.40625 1.79688,-1.9375 4.67188,-1.9375 2.76562,0 4.51562,1.89063 1.76563,1.89062 1.76563,5.3125 0,0.20312 -0.0156,0.625 l -10.3125,0 q 0.14063,2.28125 1.29688,3.5 1.15625,1.20312 2.89062,1.20312 1.28125,0 2.1875,-0.67187 0.92188,-0.6875 1.45313,-2.17188 z m -7.6875,-3.78125 7.71875,0 q -0.15625,-1.75 -0.89063,-2.625 -1.125,-1.34375 -2.90625,-1.34375 -1.60937,0 -2.71875,1.07813 -1.09375,1.07812 -1.20312,2.89062 z m 13.0437,8.23438 0,-13.82813 2.10938,0 0,1.9375 q 0.64062,-1.01562 1.71875,-1.625 1.09375,-0.625 2.46875,-0.625 1.53125,0 2.51562,0.64063 0.98438,0.64062 1.39063,1.78125 1.64062,-2.42188 4.26562,-2.42188 2.0625,0 3.15625,1.14063 1.10938,1.14062 1.10938,3.51562 l 0,9.48438 -2.32813,0 0,-8.70313 q 0,-1.40625 -0.23437,-2.01562 -0.21875,-0.625 -0.82813,-1 -0.59375,-0.39063 -1.39062,-0.39063 -1.46875,0 -2.4375,0.96875 -0.95313,0.96875 -0.95313,3.10938 l 0,8.03125 -2.34375,0 0,-8.98438 q 0,-1.5625 -0.57812,-2.34375 -0.5625,-0.78125 -1.875,-0.78125 -0.98438,0 -1.82813,0.53125 -0.82812,0.51563 -1.21875,1.51563 -0.375,1 -0.375,2.89062 l 0,7.17188 -2.34375,0 z m 21.34546,-6.90625 q 0,-3.84375 2.125,-5.6875 1.78125,-1.54688 4.34375,-1.54688 2.85938,0 4.65625,1.875 1.8125,1.85938 1.8125,5.15625 0,2.67188 -0.79687,4.20313 -0.79688,1.53125 -2.32813,2.375 -1.53125,0.84375 -3.34375,0.84375 -2.89062,0 -4.6875,-1.85938 -1.78125,-1.85937 -1.78125,-5.35937 z m 2.40625,0 q 0,2.65625 1.15625,3.98437 1.15625,1.3125 2.90625,1.3125 1.75,0 2.90625,-1.32812 1.15625,-1.32813 1.15625,-4.04688 0,-2.5625 -1.17187,-3.89062 -1.15625,-1.32813 -2.89063,-1.32813 -1.75,0 -2.90625,1.32813 -1.15625,1.3125 -1.15625,3.96875 z m 13.26245,6.90625 0,-13.82813 2.10938,0 0,2.09375 q 0.79687,-1.46875 1.48437,-1.9375 0.6875,-0.46875 1.5,-0.46875 1.1875,0 2.40625,0.76563 l -0.79687,2.17187 q -0.85938,-0.51562 -1.71875,-0.51562 -0.76563,0 -1.39063,0.46875 -0.60937,0.45312 -0.85937,1.28125 -0.39063,1.25 -0.39063,2.73437 l 0,7.23438 -2.34375,0 z m 8.79865,5.32812 -0.26563,-2.20312 q 0.76563,0.20312 1.34375,0.20312 0.78125,0 1.25,-0.26562 0.46875,-0.25 0.76563,-0.71875 0.21875,-0.35938 0.71875,-1.75 0.0625,-0.1875 0.20312,-0.5625 l -5.25,-13.85938 2.53125,0 2.875,8.01563 q 0.5625,1.51562 1,3.20312 0.40625,-1.625 0.96875,-3.15625 l 2.95313,-8.0625 2.34375,0 -5.26563,14.0625 q -0.84375,2.28125 -1.3125,3.14063 -0.625,1.15625 -1.4375,1.6875 -0.79687,0.54687 -1.92187,0.54687 -0.67188,0 -1.5,-0.28125 z"
       id="path5093"
       inkscape:connector-curvature="0"
       style="fill:#000000;fill-rule:nonzero" />
    <path
       d="m 159.38583,448.3622 10.6929,-10.69293 10.69292,10.69293 -5.34645,0 0,32.28345 5.34645,0 -10.69292,10.69293 -10.6929,-10.69293 5.34645,0 0,-32.28345 z"
       id="path5095"
       inkscape:connector-curvature="0"
       style="fill:#000000;fill-opacity:0;fill-rule:evenodd" />
    <path
       d="m 159.38583,448.3622 10.6929,-10.69293 10.69292,10.69293 -5.34645,0 0,32.28345 5.34645,0 -10.69292,10.69293 -10.6929,-10.69293 5.34645,0 0,-32.28345 z"
       id="path5097"
       inkscape:connector-curvature="0"
       style="fill-rule:evenodd;stroke:#000000;stroke-width:1;stroke-linecap:butt;stroke-linejoin:round" />
    <path
       d="m 661.43304,239.37033 0,0 c 0,-6.95805 5.64062,-12.59868 12.59869,-12.59868 l 125.98377,0 c 3.34137,0 6.5459,1.32736 8.90863,3.69006 2.36267,2.36272 3.69006,5.56725 3.69006,8.90862 l 0,50.39319 c 0,6.95807 -5.64062,12.59869 -12.59869,12.59869 l -125.98377,0 c -6.95807,0 -12.59869,-5.64062 -12.59869,-12.59869 z"
       id="path5099"
       inkscape:connector-curvature="0"
       style="fill:#000000;fill-opacity:0;fill-rule:evenodd" />
    <path
       d="m 661.43304,239.37033 0,0 c 0,-6.95805 5.64062,-12.59868 12.59869,-12.59868 l 125.98377,0 c 3.34137,0 6.5459,1.32736 8.90863,3.69006 2.36267,2.36272 3.69006,5.56725 3.69006,8.90862 l 0,50.39319 c 0,6.95807 -5.64062,12.59869 -12.59869,12.59869 l -125.98377,0 c -6.95807,0 -12.59869,-5.64062 -12.59869,-12.59869 z"
       id="path5101"
       inkscape:connector-curvature="0"
       style="fill-rule:evenodd;stroke:#000000;stroke-width:1;stroke-linecap:butt;stroke-linejoin:round" />
    <path
       d="m 690.8758,274.16693 0,-19.07813 3.79688,0 4.51562,13.5 q 0.625,1.89063 0.90625,2.82813 0.32813,-1.03125 1.01563,-3.0625 l 4.57812,-13.26563 3.39063,0 0,19.07813 -2.4375,0 0,-15.96875 -5.54688,15.96875 -2.26562,0 -5.53125,-16.25 0,16.25 -2.42188,0 z m 31.43921,-4.45313 2.42187,0.29688 q -0.57812,2.125 -2.125,3.29687 -1.54687,1.17188 -3.95312,1.17188 -3.03125,0 -4.8125,-1.85938 -1.78125,-1.875 -1.78125,-5.25 0,-3.48437 1.79687,-5.40625 1.79688,-1.9375 4.67188,-1.9375 2.76562,0 4.51562,1.89063 1.76563,1.89062 1.76563,5.3125 0,0.20312 -0.0156,0.625 l -10.3125,0 q 0.14063,2.28125 1.29688,3.5 1.15625,1.20312 2.89062,1.20312 1.28125,0 2.1875,-0.67187 0.92188,-0.6875 1.45313,-2.17188 z m -7.6875,-3.78125 7.71875,0 q -0.15625,-1.75 -0.89063,-2.625 -1.125,-1.34375 -2.90625,-1.34375 -1.60937,0 -2.71875,1.07813 -1.09375,1.07812 -1.20312,2.89062 z m 13.0437,8.23438 0,-13.82813 2.10938,0 0,1.9375 q 0.64062,-1.01562 1.71875,-1.625 1.09375,-0.625 2.46875,-0.625 1.53125,0 2.51562,0.64063 0.98438,0.64062 1.39063,1.78125 1.64062,-2.42188 4.26562,-2.42188 2.0625,0 3.15625,1.14063 1.10938,1.14062 1.10938,3.51562 l 0,9.48438 -2.32813,0 0,-8.70313 q 0,-1.40625 -0.23437,-2.01562 -0.21875,-0.625 -0.82813,-1 -0.59375,-0.39063 -1.39062,-0.39063 -1.46875,0 -2.4375,0.96875 -0.95313,0.96875 -0.95313,3.10938 l 0,8.03125 -2.34375,0 0,-8.98438 q 0,-1.5625 -0.57812,-2.34375 -0.5625,-0.78125 -1.875,-0.78125 -0.98438,0 -1.82813,0.53125 -0.82812,0.51563 -1.21875,1.51563 -0.375,1 -0.375,2.89062 l 0,7.17188 -2.34375,0 z m 21.34546,-6.90625 q 0,-3.84375 2.125,-5.6875 1.78125,-1.54688 4.34375,-1.54688 2.85937,0 4.65625,1.875 1.8125,1.85938 1.8125,5.15625 0,2.67188 -0.79688,4.20313 -0.79687,1.53125 -2.32812,2.375 -1.53125,0.84375 -3.34375,0.84375 -2.89063,0 -4.6875,-1.85938 -1.78125,-1.85937 -1.78125,-5.35937 z m 2.40625,0 q 0,2.65625 1.15625,3.98437 1.15625,1.3125 2.90625,1.3125 1.75,0 2.90625,-1.32812 1.15625,-1.32813 1.15625,-4.04688 0,-2.5625 -1.17188,-3.89062 -1.15625,-1.32813 -2.89062,-1.32813 -1.75,0 -2.90625,1.32813 -1.15625,1.3125 -1.15625,3.96875 z m 13.26245,6.90625 0,-13.82813 2.10938,0 0,2.09375 q 0.79687,-1.46875 1.48437,-1.9375 0.6875,-0.46875 1.5,-0.46875 1.1875,0 2.40625,0.76563 l -0.79687,2.17187 q -0.85938,-0.51562 -1.71875,-0.51562 -0.76563,0 -1.39063,0.46875 -0.60937,0.45312 -0.85937,1.28125 -0.39063,1.25 -0.39063,2.73437 l 0,7.23438 -2.34375,0 z m 8.79865,5.32812 -0.26563,-2.20312 q 0.76563,0.20312 1.34375,0.20312 0.78125,0 1.25,-0.26562 0.46875,-0.25 0.76563,-0.71875 0.21875,-0.35938 0.71875,-1.75 0.0625,-0.1875 0.20312,-0.5625 l -5.25,-13.85938 2.53125,0 2.875,8.01563 q 0.5625,1.51562 1,3.20312 0.40625,-1.625 0.96875,-3.15625 l 2.95313,-8.0625 2.34375,0 -5.26563,14.0625 q -0.84375,2.28125 -1.3125,3.14063 -0.625,1.15625 -1.4375,1.6875 -0.79687,0.54687 -1.92187,0.54687 -0.67188,0 -1.5,-0.28125 z"
       id="path5103"
       inkscape:connector-curvature="0"
       style="fill:#000000;fill-rule:nonzero" />
    <path
       d="m 348.37796,448.3622 10.6929,-10.69293 10.69293,10.69293 -5.34646,0 0,32.28345 5.34646,0 -10.69293,10.69293 -10.6929,-10.69293 5.34644,0 0,-32.28345 z"
       id="path5105"
       inkscape:connector-curvature="0"
       style="fill:#000000;fill-opacity:0;fill-rule:evenodd" />
    <path
       d="m 348.37796,448.3622 10.6929,-10.69293 10.69293,10.69293 -5.34646,0 0,32.28345 5.34646,0 -10.69293,10.69293 -10.6929,-10.69293 5.34644,0 0,-32.28345 z"
       id="path5107"
       inkscape:connector-curvature="0"
       style="fill-rule:evenodd;stroke:#000000;stroke-width:1;stroke-linecap:butt;stroke-linejoin:round" />
    <path
       d="m 537.3543,448.3622 10.69293,-10.69293 10.69293,10.69293 -5.34649,0 0,32.28345 5.34649,0 -10.69293,10.69293 -10.69293,-10.69293 5.3465,0 0,-32.28345 z"
       id="path5109"
       inkscape:connector-curvature="0"
       style="fill:#000000;fill-opacity:0;fill-rule:evenodd" />
    <path
       d="m 537.3543,448.3622 10.69293,-10.69293 10.69293,10.69293 -5.34649,0 0,32.28345 5.34649,0 -10.69293,10.69293 -10.69293,-10.69293 5.3465,0 0,-32.28345 z"
       id="path5111"
       inkscape:connector-curvature="0"
       style="fill-rule:evenodd;stroke:#000000;stroke-width:1;stroke-linecap:butt;stroke-linejoin:round" />
    <path
       d="m 726.3307,448.3622 10.69293,-10.69293 10.69293,10.69293 -5.34649,0 0,32.28345 5.34649,0 -10.69293,10.69293 -10.69293,-10.69293 5.3465,0 0,-32.28345 z"
       id="path5113"
       inkscape:connector-curvature="0"
       style="fill:#000000;fill-opacity:0;fill-rule:evenodd" />
    <path
       d="m 726.3307,448.3622 10.69293,-10.69293 10.69293,10.69293 -5.34649,0 0,32.28345 5.34649,0 -10.69293,10.69293 -10.69293,-10.69293 5.3465,0 0,-32.28345 z"
       id="path5115"
       inkscape:connector-curvature="0"
       style="fill-rule:evenodd;stroke:#000000;stroke-width:1;stroke-linecap:butt;stroke-linejoin:round" />
  </g>
</svg>
