<?xml version="1.0" encoding="UTF-8" standalone="no"?>
<svg
   xmlns:dc="http://purl.org/dc/elements/1.1/"
   xmlns:cc="http://creativecommons.org/ns#"
   xmlns:rdf="http://www.w3.org/1999/02/22-rdf-syntax-ns#"
   xmlns:svg="http://www.w3.org/2000/svg"
   xmlns="http://www.w3.org/2000/svg"
   xmlns:sodipodi="http://sodipodi.sourceforge.net/DTD/sodipodi-0.dtd"
   xmlns:inkscape="http://www.inkscape.org/namespaces/inkscape"
   version="1.1"
   viewBox="0.0 0.0 960.0 720.0"
   fill="none"
   stroke="none"
   stroke-linecap="square"
   stroke-miterlimit="10"
   id="svg5977"
   inkscape:version="0.91 r13725"
   sodipodi:docname="hybrid_memory.svg">
  <metadata
     id="metadata6110">
    <rdf:RDF>
      <cc:Work
         rdf:about="">
        <dc:format>image/svg+xml</dc:format>
        <dc:type
           rdf:resource="http://purl.org/dc/dcmitype/StillImage" />
      </cc:Work>
    </rdf:RDF>
  </metadata>
  <defs
     id="defs6108" />
  <sodipodi:namedview
     pagecolor="#ffffff"
     bordercolor="#666666"
     borderopacity="1"
     objecttolerance="10"
     gridtolerance="10"
     guidetolerance="10"
     inkscape:pageopacity="0"
     inkscape:pageshadow="2"
     inkscape:window-width="1674"
     inkscape:window-height="982"
     id="namedview6106"
     showgrid="false"
     inkscape:zoom="0.87799092"
     inkscape:cx="441.50092"
     inkscape:cy="310.51226"
     inkscape:window-x="1601"
     inkscape:window-y="57"
     inkscape:window-maximized="0"
     inkscape:current-layer="svg5977" />
  <clipPath
     id="g2a0863b0b0_0_71.0">
    <path
       d="m0 0l960.0 0l0 720.0l-960.0 0l0 -720.0z"
       clip-rule="nonzero"
       id="path5980" />
  </clipPath>
  <g
     id="g6759"
     inkscape:export-xdpi="71.879997"
     inkscape:export-ydpi="71.879997">
    <path
       d="m 129.60378,527.6012 699.2126,0 0,37.79523 -699.2126,0 z"
       id="path6020"
       inkscape:connector-curvature="0"
       style="fill:#000000;fill-opacity:0;fill-rule:evenodd" />
    <path
       d="m 129.60378,527.6012 699.2126,0 0,37.79523 -699.2126,0 z"
       id="path6022"
       inkscape:connector-curvature="0"
       style="fill-rule:evenodd;stroke:#000000;stroke-width:1;stroke-linecap:butt;stroke-linejoin:round" />
    <path
       d="m 383.04602,538.54694 0,-3.23438 2.8125,0 0,3.23438 -2.8125,0 z m 0,19.67187 0,-16.59375 2.8125,0 0,16.59375 -2.8125,0 z m 7.09375,0 0,-16.59375 2.53125,0 0,2.35938 q 1.82812,-2.73438 5.28125,-2.73438 1.5,0 2.75,0.54688 1.26562,0.53125 1.89062,1.40625 0.625,0.875 0.875,2.07812 0.15625,0.78125 0.15625,2.73438 l 0,10.20312 -2.8125,0 0,-10.09375 q 0,-1.71875 -0.32812,-2.5625 -0.32813,-0.85937 -1.17188,-1.35937 -0.82812,-0.51563 -1.95312,-0.51563 -1.79688,0 -3.10938,1.14063 -1.29687,1.14062 -1.29687,4.32812 l 0,9.0625 -2.8125,0 z m 23.9375,-2.51562 0.40625,2.48437 q -1.1875,0.25 -2.125,0.25 -1.53125,0 -2.375,-0.48437 -0.84375,-0.48438 -1.1875,-1.26563 -0.34375,-0.79687 -0.34375,-3.32812 l 0,-9.54688 -2.0625,0 0,-2.1875 2.0625,0 0,-4.10937 2.79687,-1.6875 0,5.79687 2.82813,0 0,2.1875 -2.82813,0 0,9.70313 q 0,1.20312 0.14063,1.54687 0.15625,0.34375 0.48437,0.54688 0.34375,0.20312 0.96875,0.20312 0.46875,0 1.23438,-0.10937 z m 14.10937,-2.82813 2.90625,0.35938 q -0.6875,2.54687 -2.54687,3.95312 -1.85938,1.40625 -4.75,1.40625 -3.64063,0 -5.78125,-2.23437 -2.125,-2.25 -2.125,-6.29688 0,-4.1875 2.15625,-6.5 2.15625,-2.3125 5.59375,-2.3125 3.32812,0 5.4375,2.26563 2.10937,2.26562 2.10937,6.375 0,0.25 -0.0156,0.75 l -12.375,0 q 0.15625,2.73437 1.54687,4.1875 1.39063,1.45312 3.46875,1.45312 1.54688,0 2.64063,-0.8125 1.09375,-0.8125 1.73437,-2.59375 z m -9.23437,-4.54687 9.26562,0 q -0.1875,-2.09375 -1.0625,-3.14063 -1.34375,-1.625 -3.48437,-1.625 -1.9375,0 -3.26563,1.29688 -1.3125,1.29687 -1.45312,3.46875 z m 15.64062,9.89062 0,-16.59375 2.53125,0 0,2.51563 q 0.96875,-1.76563 1.78125,-2.32813 0.82813,-0.5625 1.8125,-0.5625 1.42188,0 2.89063,0.90625 l -0.96875,2.60938 q -1.03125,-0.60938 -2.0625,-0.60938 -0.92188,0 -1.65625,0.5625 -0.73438,0.54688 -1.04688,1.53125 -0.46875,1.5 -0.46875,3.28125 l 0,8.6875 -2.8125,0 z m 21.51563,-6.07812 2.76562,0.35937 q -0.45312,2.85938 -2.32812,4.48438 -1.85938,1.60937 -4.57813,1.60937 -3.40625,0 -5.48437,-2.21875 -2.0625,-2.23437 -2.0625,-6.39062 0,-2.6875 0.89062,-4.70313 0.89063,-2.01562 2.70313,-3.01562 1.82812,-1.01563 3.96875,-1.01563 2.70312,0 4.42187,1.375 1.71875,1.35938 2.20313,3.875 l -2.73438,0.42188 q -0.39062,-1.67188 -1.39062,-2.51563 -0.98438,-0.84375 -2.39063,-0.84375 -2.125,0 -3.45312,1.53125 -1.32813,1.51563 -1.32813,4.8125 0,3.34375 1.28125,4.85938 1.28125,1.51562 3.34375,1.51562 1.65625,0 2.76563,-1.01562 1.10937,-1.01563 1.40625,-3.125 z m 4.125,-2.21875 q 0,-4.60938 2.5625,-6.82813 2.14062,-1.84375 5.21875,-1.84375 3.42187,0 5.59375,2.25 2.17187,2.23438 2.17187,6.1875 0,3.20313 -0.96875,5.04688 -0.95312,1.82812 -2.79687,2.84375 -1.82813,1.01562 -4,1.01562 -3.48438,0 -5.64063,-2.23437 -2.14062,-2.23438 -2.14062,-6.4375 z m 2.89062,0 q 0,3.1875 1.39063,4.78125 1.39062,1.57812 3.5,1.57812 2.09375,0 3.48437,-1.59375 1.39063,-1.59375 1.39063,-4.85937 0,-3.07813 -1.40625,-4.65625 -1.39063,-1.59375 -3.46875,-1.59375 -2.10938,0 -3.5,1.57812 -1.39063,1.57813 -1.39063,4.76563 z m 15.95313,8.29687 0,-16.59375 2.53125,0 0,2.35938 q 1.82812,-2.73438 5.28125,-2.73438 1.5,0 2.75,0.54688 1.26562,0.53125 1.89062,1.40625 0.625,0.875 0.875,2.07812 0.15625,0.78125 0.15625,2.73438 l 0,10.20312 -2.8125,0 0,-10.09375 q 0,-1.71875 -0.32812,-2.5625 -0.32813,-0.85937 -1.17188,-1.35937 -0.82812,-0.51563 -1.95312,-0.51563 -1.79688,0 -3.10938,1.14063 -1.29687,1.14062 -1.29687,4.32812 l 0,9.0625 -2.8125,0 z m 17.79687,0 0,-16.59375 2.53125,0 0,2.35938 q 1.82813,-2.73438 5.28125,-2.73438 1.5,0 2.75,0.54688 1.26563,0.53125 1.89063,1.40625 0.625,0.875 0.875,2.07812 0.15625,0.78125 0.15625,2.73438 l 0,10.20312 -2.8125,0 0,-10.09375 q 0,-1.71875 -0.32813,-2.5625 -0.32812,-0.85937 -1.17187,-1.35937 -0.82813,-0.51563 -1.95313,-0.51563 -1.79687,0 -3.10937,1.14063 -1.29688,1.14062 -1.29688,4.32812 l 0,9.0625 -2.8125,0 z m 29.15625,-5.34375 2.90625,0.35938 q -0.6875,2.54687 -2.54687,3.95312 -1.85938,1.40625 -4.75,1.40625 -3.64063,0 -5.78125,-2.23437 -2.125,-2.25 -2.125,-6.29688 0,-4.1875 2.15625,-6.5 2.15625,-2.3125 5.59375,-2.3125 3.32812,0 5.4375,2.26563 2.10937,2.26562 2.10937,6.375 0,0.25 -0.0156,0.75 l -12.375,0 q 0.15625,2.73437 1.54687,4.1875 1.39063,1.45312 3.46875,1.45312 1.54688,0 2.64063,-0.8125 1.09375,-0.8125 1.73437,-2.59375 z m -9.23437,-4.54687 9.26562,0 q -0.1875,-2.09375 -1.0625,-3.14063 -1.34375,-1.625 -3.48437,-1.625 -1.9375,0 -3.26563,1.29688 -1.3125,1.29687 -1.45312,3.46875 z m 26.5,3.8125 2.76562,0.35937 q -0.45312,2.85938 -2.32812,4.48438 -1.85938,1.60937 -4.57813,1.60937 -3.40625,0 -5.48437,-2.21875 -2.0625,-2.23437 -2.0625,-6.39062 0,-2.6875 0.89062,-4.70313 0.89063,-2.01562 2.70313,-3.01562 1.82812,-1.01563 3.96875,-1.01563 2.70312,0 4.42187,1.375 1.71875,1.35938 2.20313,3.875 l -2.73438,0.42188 q -0.39062,-1.67188 -1.39062,-2.51563 -0.98438,-0.84375 -2.39063,-0.84375 -2.125,0 -3.45312,1.53125 -1.32813,1.51563 -1.32813,4.8125 0,3.34375 1.28125,4.85938 1.28125,1.51562 3.34375,1.51562 1.65625,0 2.76563,-1.01562 1.10937,-1.01563 1.40625,-3.125 z m 11.3125,3.5625 0.40625,2.48437 q -1.1875,0.25 -2.125,0.25 -1.53125,0 -2.375,-0.48437 -0.84375,-0.48438 -1.1875,-1.26563 -0.34375,-0.79687 -0.34375,-3.32812 l 0,-9.54688 -2.0625,0 0,-2.1875 2.0625,0 0,-4.10937 2.79687,-1.6875 0,5.79687 2.82813,0 0,2.1875 -2.82813,0 0,9.70313 q 0,1.20312 0.14063,1.54687 0.15625,0.34375 0.48437,0.54688 0.34375,0.20312 0.96875,0.20312 0.46875,0 1.23438,-0.10937 z"
       id="path6024"
       inkscape:connector-curvature="0"
       style="fill:#000000;fill-rule:nonzero" />
    <path
       d="m 91.8085,223.34421 359.0551,0 0,264.56693 -359.0551,0 z"
       id="path6026"
       inkscape:connector-curvature="0"
       style="fill:#000000;fill-opacity:0;fill-rule:evenodd" />
    <path
       d="m 91.8085,223.34421 359.0551,0 0,264.56693 -359.0551,0 z"
       id="path6028"
       inkscape:connector-curvature="0"
       style="fill-rule:evenodd;stroke:#000000;stroke-width:1;stroke-linecap:butt;stroke-linejoin:round;stroke-dasharray:4, 3, 1, 3" />
    <path
       d="m 102.91788,258.0642 0,-22.90625 2.8125,0 0,8.21875 q 1.96875,-2.28125 4.96875,-2.28125 1.84375,0 3.20312,0.73438 1.35938,0.71875 1.9375,2 0.59375,1.28125 0.59375,3.71875 l 0,10.51562 -2.8125,0 0,-10.51562 q 0,-2.10938 -0.92187,-3.0625 -0.90625,-0.96875 -2.57813,-0.96875 -1.25,0 -2.35937,0.65625 -1.09375,0.64062 -1.5625,1.75 -0.46875,1.10937 -0.46875,3.0625 l 0,9.07812 -2.8125,0 z m 16.75,-8.29687 q 0,-4.60938 2.5625,-6.82813 2.14062,-1.84375 5.21875,-1.84375 3.42187,0 5.59375,2.25 2.17187,2.23438 2.17187,6.1875 0,3.20313 -0.96875,5.04688 -0.95312,1.82812 -2.79687,2.84375 -1.82813,1.01562 -4,1.01562 -3.48438,0 -5.64063,-2.23437 -2.14062,-2.23438 -2.14062,-6.4375 z m 2.89062,0 q 0,3.1875 1.39063,4.78125 1.39062,1.57812 3.5,1.57812 2.09375,0 3.48437,-1.59375 1.39063,-1.59375 1.39063,-4.85937 0,-3.07813 -1.40625,-4.65625 -1.39063,-1.59375 -3.46875,-1.59375 -2.10938,0 -3.5,1.57812 -1.39063,1.57813 -1.39063,4.76563 z m 14.82813,3.34375 2.78125,-0.4375 q 0.23437,1.67187 1.29687,2.5625 1.07813,0.89062 3,0.89062 1.9375,0 2.875,-0.78125 0.9375,-0.79687 0.9375,-1.85937 0,-0.95313 -0.82812,-1.5 -0.57813,-0.375 -2.875,-0.95313 -3.09375,-0.78125 -4.29688,-1.34375 -1.1875,-0.57812 -1.8125,-1.57812 -0.60937,-1.01563 -0.60937,-2.23438 0,-1.10937 0.5,-2.04687 0.51562,-0.95313 1.39062,-1.57813 0.65625,-0.48437 1.78125,-0.8125 1.14063,-0.34375 2.4375,-0.34375 1.95313,0 3.42188,0.5625 1.48437,0.5625 2.1875,1.53125 0.70312,0.95313 0.96875,2.5625 l -2.75,0.375 q -0.1875,-1.28125 -1.09375,-2 -0.89063,-0.71875 -2.53125,-0.71875 -1.9375,0 -2.76563,0.64063 -0.82812,0.64062 -0.82812,1.5 0,0.54687 0.34375,0.98437 0.34375,0.45313 1.07812,0.75 0.42188,0.15625 2.48438,0.71875 2.98437,0.79688 4.15625,1.3125 1.1875,0.5 1.85937,1.46875 0.67188,0.96875 0.67188,2.40625 0,1.40625 -0.82813,2.65625 -0.8125,1.23438 -2.35937,1.92188 -1.54688,0.67187 -3.5,0.67187 -3.23438,0 -4.9375,-1.34375 -1.6875,-1.34375 -2.15625,-3.98437 z m 23.26562,2.4375 0.40625,2.48437 q -1.1875,0.25 -2.125,0.25 -1.53125,0 -2.375,-0.48437 -0.84375,-0.48438 -1.1875,-1.26563 -0.34375,-0.79687 -0.34375,-3.32812 l 0,-9.54688 -2.0625,0 0,-2.1875 2.0625,0 0,-4.10937 2.79688,-1.6875 0,5.79687 2.82812,0 0,2.1875 -2.82812,0 0,9.70313 q 0,1.20312 0.14062,1.54687 0.15625,0.34375 0.48438,0.54688 0.34375,0.20312 0.96875,0.20312 0.46875,0 1.23437,-0.10937 z"
       id="path6030"
       inkscape:connector-curvature="0"
       style="fill:#000000;fill-rule:nonzero" />
    <path
       d="m 171.746,251.76733 q 0,-4.85938 2.85937,-8.04688 2.35938,-2.625 6.1875,-2.625 3,0 4.82813,1.875 1.84375,1.875 1.84375,5.0625 0,2.85938 -1.15625,5.32813 -1.15625,2.45312 -3.29688,3.76563 -2.125,1.3125 -4.48437,1.3125 -1.9375,0 -3.53125,-0.82813 -1.57813,-0.82812 -2.42188,-2.34375 -0.82812,-1.51562 -0.82812,-3.5 z m 2.82812,-0.28125 q 0,2.34375 1.125,3.5625 1.125,1.20313 2.85938,1.20313 0.90625,0 1.79687,-0.35938 0.89063,-0.375 1.65625,-1.125 0.76563,-0.75 1.29688,-1.70312 0.54687,-0.96875 0.875,-2.07813 0.48437,-1.54687 0.48437,-2.96875 0,-2.25 -1.14062,-3.48437 -1.125,-1.25 -2.84375,-1.25 -1.32813,0 -2.42188,0.64062 -1.09375,0.625 -1.98437,1.84375 -0.875,1.21875 -1.29688,2.84375 -0.40625,1.60938 -0.40625,2.875 z m 14.46875,6.57813 3.46875,-16.59375 2.5,0 -0.70312,3.39062 q 1.28125,-1.92187 2.5,-2.84375 1.23437,-0.92187 2.51562,-0.92187 0.84375,0 2.07813,0.60937 l -1.15625,2.625 q -0.73438,-0.53125 -1.60938,-0.53125 -1.48437,0 -3.04687,1.65625 -1.5625,1.65625 -2.45313,5.95313 l -1.40625,6.65625 -2.6875,0 z"
       id="path6032"
       inkscape:connector-curvature="0"
       style="fill:#000000;fill-rule:nonzero" />
    <path
       d="m 209.63663,258.0642 0,-16.59375 2.53125,0 0,2.35938 q 1.82812,-2.73438 5.28125,-2.73438 1.5,0 2.75,0.54688 1.26562,0.53125 1.89062,1.40625 0.625,0.875 0.875,2.07812 0.15625,0.78125 0.15625,2.73438 l 0,10.20312 -2.8125,0 0,-10.09375 q 0,-1.71875 -0.32812,-2.5625 -0.32813,-0.85937 -1.17188,-1.35937 -0.82812,-0.51563 -1.95312,-0.51563 -1.79688,0 -3.10938,1.14063 -1.29687,1.14062 -1.29687,4.32812 l 0,9.0625 -2.8125,0 z m 16.75,-8.29687 q 0,-4.60938 2.5625,-6.82813 2.14062,-1.84375 5.21875,-1.84375 3.42187,0 5.59375,2.25 2.17187,2.23438 2.17187,6.1875 0,3.20313 -0.96875,5.04688 -0.95312,1.82812 -2.79687,2.84375 -1.82813,1.01562 -4,1.01562 -3.48438,0 -5.64063,-2.23437 -2.14062,-2.23438 -2.14062,-6.4375 z m 2.89062,0 q 0,3.1875 1.39063,4.78125 1.39062,1.57812 3.5,1.57812 2.09375,0 3.48437,-1.59375 1.39063,-1.59375 1.39063,-4.85937 0,-3.07813 -1.40625,-4.65625 -1.39063,-1.59375 -3.46875,-1.59375 -2.10938,0 -3.5,1.57812 -1.39063,1.57813 -1.39063,4.76563 z m 26.71875,8.29687 0,-2.09375 q -1.57812,2.46875 -4.64062,2.46875 -1.98438,0 -3.65625,-1.09375 -1.65625,-1.09375 -2.57813,-3.04687 -0.90625,-1.96875 -0.90625,-4.51563 0,-2.48437 0.82813,-4.5 0.82812,-2.03125 2.48437,-3.10937 1.65625,-1.07813 3.70313,-1.07813 1.5,0 2.67187,0.64063 1.17188,0.625 1.90625,1.64062 l 0,-8.21875 2.79688,0 0,22.90625 -2.60938,0 z m -8.89062,-8.28125 q 0,3.1875 1.34375,4.76563 1.34375,1.57812 3.17187,1.57812 1.84375,0 3.125,-1.5 1.29688,-1.51562 1.29688,-4.60937 0,-3.40625 -1.3125,-5 -1.3125,-1.59375 -3.23438,-1.59375 -1.875,0 -3.14062,1.53125 -1.25,1.53125 -1.25,4.82812 z m 27.28125,2.9375 2.90625,0.35938 q -0.6875,2.54687 -2.54688,3.95312 -1.85937,1.40625 -4.75,1.40625 -3.64062,0 -5.78125,-2.23437 -2.125,-2.25 -2.125,-6.29688 0,-4.1875 2.15625,-6.5 2.15625,-2.3125 5.59375,-2.3125 3.32813,0 5.4375,2.26563 2.10938,2.26562 2.10938,6.375 0,0.25 -0.0156,0.75 l -12.375,0 q 0.15625,2.73437 1.54688,4.1875 1.39062,1.45312 3.46875,1.45312 1.54687,0 2.64062,-0.8125 1.09375,-0.8125 1.73438,-2.59375 z m -9.23438,-4.54687 9.26563,0 q -0.1875,-2.09375 -1.0625,-3.14063 -1.34375,-1.625 -3.48438,-1.625 -1.9375,0 -3.26562,1.29688 -1.3125,1.29687 -1.45313,3.46875 z"
       id="path6034"
       inkscape:connector-curvature="0"
       style="fill:#000000;fill-rule:nonzero" />
    <path
       d="m 102.72703,395.31757 159.87402,0 0,75.59058 -159.87402,0 z"
       id="path6036"
       inkscape:connector-curvature="0"
       style="fill:#000000;fill-opacity:0;fill-rule:evenodd" />
    <path
       d="m 102.72703,395.31757 159.87402,0 0,75.59058 -159.87402,0 z"
       id="path6038"
       inkscape:connector-curvature="0"
       style="fill-rule:evenodd;stroke:#000000;stroke-width:1;stroke-linecap:butt;stroke-linejoin:round" />
    <path
       d="m 114.80368,451.19223 0,-22.95313 2.5625,0 0,2.15625 q 0.90625,-1.26562 2.04688,-1.89062 1.14062,-0.64063 2.76562,-0.64063 2.125,0 3.75,1.09375 1.625,1.09375 2.45313,3.09375 0.82812,1.98438 0.82812,4.35938 0,2.54687 -0.92187,4.59375 -0.90625,2.03125 -2.65625,3.125 -1.73438,1.07812 -3.65625,1.07812 -1.40625,0 -2.53125,-0.59375 -1.10938,-0.59375 -1.82813,-1.5 l 0,8.07813 -2.8125,0 z m 2.54688,-14.5625 q 0,3.20312 1.29687,4.73437 1.29688,1.53125 3.14063,1.53125 1.875,0 3.20312,-1.57812 1.34375,-1.59375 1.34375,-4.92188 0,-3.17187 -1.3125,-4.75 -1.29687,-1.57812 -3.10937,-1.57812 -1.79688,0 -3.1875,1.6875 -1.375,1.67187 -1.375,4.875 z m 15.21875,8.20312 0,-16.59375 2.53125,0 0,2.51563 q 0.96875,-1.76563 1.78125,-2.32813 0.82812,-0.5625 1.8125,-0.5625 1.42186,0 2.89061,0.90625 l -0.96875,2.60938 q -1.03125,-0.60938 -2.06249,-0.60938 -0.92187,0 -1.65625,0.5625 -0.73437,0.54688 -1.04687,1.53125 -0.46875,1.5 -0.46875,3.28125 l 0,8.6875 -2.8125,0 z m 9.64061,-8.29687 q 0,-4.60938 2.5625,-6.82813 2.14063,-1.84375 5.21875,-1.84375 3.42188,0 5.59375,2.25 2.17188,2.23438 2.17188,6.1875 0,3.20313 -0.96875,5.04688 -0.95313,1.82812 -2.79688,2.84375 -1.82812,1.01562 -4,1.01562 -3.48437,0 -5.64062,-2.23437 -2.14063,-2.23438 -2.14063,-6.4375 z m 2.89063,0 q 0,3.1875 1.39062,4.78125 1.39063,1.57812 3.5,1.57812 2.09375,0 3.48438,-1.59375 1.39062,-1.59375 1.39062,-4.85937 0,-3.07813 -1.40625,-4.65625 -1.39062,-1.59375 -3.46875,-1.59375 -2.10937,0 -3.5,1.57812 -1.39062,1.57813 -1.39062,4.76563 z m 26.78125,2.21875 2.76562,0.35937 q -0.45312,2.85938 -2.32812,4.48438 -1.85938,1.60937 -4.57813,1.60937 -3.40625,0 -5.48437,-2.21875 -2.0625,-2.23437 -2.0625,-6.39062 0,-2.6875 0.89062,-4.70313 0.89063,-2.01562 2.70313,-3.01562 1.82812,-1.01563 3.96875,-1.01563 2.70312,0 4.42187,1.375 1.71875,1.35938 2.20313,3.875 l -2.73438,0.42188 q -0.39062,-1.67188 -1.39062,-2.51563 -0.98438,-0.84375 -2.39063,-0.84375 -2.125,0 -3.45312,1.53125 -1.32813,1.51563 -1.32813,4.8125 0,3.34375 1.28125,4.85938 1.28125,1.51562 3.34375,1.51562 1.65625,0 2.76563,-1.01562 1.10937,-1.01563 1.40625,-3.125 z m 16.53126,0.73437 2.90625,0.35938 q -0.6875,2.54687 -2.54687,3.95312 -1.85938,1.40625 -4.75,1.40625 -3.64063,0 -5.78125,-2.23437 -2.12502,-2.25 -2.12502,-6.29688 0,-4.1875 2.15627,-6.5 2.15625,-2.3125 5.59375,-2.3125 3.32812,0 5.4375,2.26563 2.10937,2.26562 2.10937,6.375 0,0.25 -0.0156,0.75 l -12.375,0 q 0.15625,2.73437 1.54687,4.1875 1.39063,1.45312 3.46875,1.45312 1.54688,0 2.64063,-0.8125 1.09375,-0.8125 1.73437,-2.59375 z m -9.23437,-4.54687 9.26562,0 q -0.1875,-2.09375 -1.0625,-3.14063 -1.34375,-1.625 -3.48437,-1.625 -1.9375,0 -3.26563,1.29688 -1.3125,1.29687 -1.45312,3.46875 z m 14.54687,4.9375 2.78125,-0.4375 q 0.23438,1.67187 1.29688,2.5625 1.07812,0.89062 3,0.89062 1.9375,0 2.875,-0.78125 0.9375,-0.79687 0.9375,-1.85937 0,-0.95313 -0.82813,-1.5 -0.57812,-0.375 -2.875,-0.95313 -3.09375,-0.78125 -4.29687,-1.34375 -1.1875,-0.57812 -1.8125,-1.57812 -0.60938,-1.01563 -0.60938,-2.23438 0,-1.10937 0.5,-2.04687 0.51563,-0.95313 1.39063,-1.57813 0.65625,-0.48437 1.78125,-0.8125 1.14062,-0.34375 2.4375,-0.34375 1.95312,0 3.42187,0.5625 1.48438,0.5625 2.1875,1.53125 0.70313,0.95313 0.96875,2.5625 l -2.75,0.375 q -0.1875,-1.28125 -1.09375,-2 -0.89062,-0.71875 -2.53125,-0.71875 -1.9375,0 -2.76562,0.64063 -0.82813,0.64062 -0.82813,1.5 0,0.54687 0.34375,0.98437 0.34375,0.45313 1.07813,0.75 0.42187,0.15625 2.48437,0.71875 2.98438,0.79688 4.15625,1.3125 1.1875,0.5 1.85938,1.46875 0.67187,0.96875 0.67187,2.40625 0,1.40625 -0.82812,2.65625 -0.8125,1.23438 -2.35938,1.92188 -1.54687,0.67187 -3.5,0.67187 -3.23437,0 -4.9375,-1.34375 -1.6875,-1.34375 -2.15625,-3.98437 z m 16,0 2.78125,-0.4375 q 0.23438,1.67187 1.29688,2.5625 1.07812,0.89062 3,0.89062 1.9375,0 2.875,-0.78125 0.9375,-0.79687 0.9375,-1.85937 0,-0.95313 -0.82813,-1.5 -0.57812,-0.375 -2.875,-0.95313 -3.09375,-0.78125 -4.29687,-1.34375 -1.1875,-0.57812 -1.8125,-1.57812 -0.60938,-1.01563 -0.60938,-2.23438 0,-1.10937 0.5,-2.04687 0.51563,-0.95313 1.39063,-1.57813 0.65625,-0.48437 1.78125,-0.8125 1.14062,-0.34375 2.4375,-0.34375 1.95312,0 3.42187,0.5625 1.48438,0.5625 2.1875,1.53125 0.70313,0.95313 0.96875,2.5625 l -2.75,0.375 q -0.1875,-1.28125 -1.09375,-2 -0.89062,-0.71875 -2.53125,-0.71875 -1.9375,0 -2.76562,0.64063 -0.82813,0.64062 -0.82813,1.5 0,0.54687 0.34375,0.98437 0.34375,0.45313 1.07813,0.75 0.42187,0.15625 2.48437,0.71875 2.98438,0.79688 4.15625,1.3125 1.1875,0.5 1.85938,1.46875 0.67187,0.96875 0.67187,2.40625 0,1.40625 -0.82812,2.65625 -0.8125,1.23438 -2.35938,1.92188 -1.54687,0.67187 -3.5,0.67187 -3.23437,0 -4.9375,-1.34375 -1.6875,-1.34375 -2.15625,-3.98437 z m 16.07813,-3.34375 q 0,-4.60938 2.5625,-6.82813 2.14062,-1.84375 5.21875,-1.84375 3.42187,0 5.59375,2.25 2.17187,2.23438 2.17187,6.1875 0,3.20313 -0.96875,5.04688 -0.95312,1.82812 -2.79687,2.84375 -1.82813,1.01562 -4,1.01562 -3.48438,0 -5.64063,-2.23437 -2.14062,-2.23438 -2.14062,-6.4375 z m 2.89062,0 q 0,3.1875 1.39063,4.78125 1.39062,1.57812 3.5,1.57812 2.09375,0 3.48437,-1.59375 1.39063,-1.59375 1.39063,-4.85937 0,-3.07813 -1.40625,-4.65625 -1.39063,-1.59375 -3.46875,-1.59375 -2.10938,0 -3.5,1.57812 -1.39063,1.57813 -1.39063,4.76563 z m 15.92188,8.29687 0,-16.59375 2.53125,0 0,2.51563 q 0.96875,-1.76563 1.78125,-2.32813 0.82812,-0.5625 1.8125,-0.5625 1.42187,0 2.89062,0.90625 l -0.96875,2.60938 q -1.03125,-0.60938 -2.0625,-0.60938 -0.92187,0 -1.65625,0.5625 -0.73437,0.54688 -1.04687,1.53125 -0.46875,1.5 -0.46875,3.28125 l 0,8.6875 -2.8125,0 z"
       id="path6040"
       inkscape:connector-curvature="0"
       style="fill:#000000;fill-rule:nonzero" />
    <path
       d="m 273.43964,395.31757 159.87402,0 0,75.59058 -159.87402,0 z"
       id="path6042"
       inkscape:connector-curvature="0"
       style="fill:#000000;fill-opacity:0;fill-rule:evenodd" />
    <path
       d="m 273.43964,395.31757 159.87402,0 0,75.59058 -159.87402,0 z"
       id="path6044"
       inkscape:connector-curvature="0"
       style="fill-rule:evenodd;stroke:#000000;stroke-width:1;stroke-linecap:butt;stroke-linejoin:round" />
    <path
       d="m 285.51629,451.19223 0,-22.95313 2.5625,0 0,2.15625 q 0.90625,-1.26562 2.04687,-1.89062 1.14063,-0.64063 2.76563,-0.64063 2.125,0 3.75,1.09375 1.625,1.09375 2.45312,3.09375 0.82813,1.98438 0.82813,4.35938 0,2.54687 -0.92188,4.59375 -0.90625,2.03125 -2.65625,3.125 -1.73437,1.07812 -3.65625,1.07812 -1.40625,0 -2.53125,-0.59375 -1.10937,-0.59375 -1.82812,-1.5 l 0,8.07813 -2.8125,0 z m 2.54687,-14.5625 q 0,3.20312 1.29688,4.73437 1.29687,1.53125 3.14062,1.53125 1.875,0 3.20313,-1.57812 1.34375,-1.59375 1.34375,-4.92188 0,-3.17187 -1.3125,-4.75 -1.29688,-1.57812 -3.10938,-1.57812 -1.79687,0 -3.1875,1.6875 -1.375,1.67187 -1.375,4.875 z m 15.21875,8.20312 0,-16.59375 2.53125,0 0,2.51563 q 0.96875,-1.76563 1.78125,-2.32813 0.82813,-0.5625 1.8125,-0.5625 1.42188,0 2.89063,0.90625 l -0.96875,2.60938 q -1.03125,-0.60938 -2.0625,-0.60938 -0.92188,0 -1.65625,0.5625 -0.73438,0.54688 -1.04688,1.53125 -0.46875,1.5 -0.46875,3.28125 l 0,8.6875 -2.8125,0 z m 9.64063,-8.29687 q 0,-4.60938 2.5625,-6.82813 2.14062,-1.84375 5.21875,-1.84375 3.42187,0 5.59375,2.25 2.17187,2.23438 2.17187,6.1875 0,3.20313 -0.96875,5.04688 -0.95312,1.82812 -2.79687,2.84375 -1.82813,1.01562 -4,1.01562 -3.48438,0 -5.64063,-2.23437 -2.14062,-2.23438 -2.14062,-6.4375 z m 2.89062,0 q 0,3.1875 1.39063,4.78125 1.39062,1.57812 3.5,1.57812 2.09375,0 3.48437,-1.59375 1.39063,-1.59375 1.39063,-4.85937 0,-3.07813 -1.40625,-4.65625 -1.39063,-1.59375 -3.46875,-1.59375 -2.10938,0 -3.5,1.57812 -1.39063,1.57813 -1.39063,4.76563 z m 26.78125,2.21875 2.76563,0.35937 q -0.45313,2.85938 -2.32813,4.48438 -1.85937,1.60937 -4.57812,1.60937 -3.40625,0 -5.48438,-2.21875 -2.0625,-2.23437 -2.0625,-6.39062 0,-2.6875 0.89063,-4.70313 0.89062,-2.01562 2.70312,-3.01562 1.82813,-1.01563 3.96875,-1.01563 2.70313,0 4.42188,1.375 1.71875,1.35938 2.20312,3.875 l -2.73437,0.42188 q -0.39063,-1.67188 -1.39063,-2.51563 -0.98437,-0.84375 -2.39062,-0.84375 -2.125,0 -3.45313,1.53125 -1.32812,1.51563 -1.32812,4.8125 0,3.34375 1.28125,4.85938 1.28125,1.51562 3.34375,1.51562 1.65625,0 2.76562,-1.01562 1.10938,-1.01563 1.40625,-3.125 z m 16.53125,0.73437 2.90625,0.35938 q -0.6875,2.54687 -2.54687,3.95312 -1.85938,1.40625 -4.75,1.40625 -3.64063,0 -5.78125,-2.23437 -2.125,-2.25 -2.125,-6.29688 0,-4.1875 2.15625,-6.5 2.15625,-2.3125 5.59375,-2.3125 3.32812,0 5.4375,2.26563 2.10937,2.26562 2.10937,6.375 0,0.25 -0.0156,0.75 l -12.375,0 q 0.15625,2.73437 1.54687,4.1875 1.39063,1.45312 3.46875,1.45312 1.54688,0 2.64063,-0.8125 1.09375,-0.8125 1.73437,-2.59375 z m -9.23437,-4.54687 9.26562,0 q -0.1875,-2.09375 -1.0625,-3.14063 -1.34375,-1.625 -3.48437,-1.625 -1.9375,0 -3.26563,1.29688 -1.3125,1.29687 -1.45312,3.46875 z m 14.54687,4.9375 2.78125,-0.4375 q 0.23438,1.67187 1.29688,2.5625 1.07812,0.89062 3,0.89062 1.9375,0 2.875,-0.78125 0.9375,-0.79687 0.9375,-1.85937 0,-0.95313 -0.82813,-1.5 -0.57812,-0.375 -2.875,-0.95313 -3.09375,-0.78125 -4.29687,-1.34375 -1.1875,-0.57812 -1.8125,-1.57812 -0.60938,-1.01563 -0.60938,-2.23438 0,-1.10937 0.5,-2.04687 0.51563,-0.95313 1.39063,-1.57813 0.65625,-0.48437 1.78125,-0.8125 1.14062,-0.34375 2.4375,-0.34375 1.95312,0 3.42187,0.5625 1.48438,0.5625 2.1875,1.53125 0.70313,0.95313 0.96875,2.5625 l -2.75,0.375 q -0.1875,-1.28125 -1.09375,-2 -0.89062,-0.71875 -2.53125,-0.71875 -1.9375,0 -2.76562,0.64063 -0.82813,0.64062 -0.82813,1.5 0,0.54687 0.34375,0.98437 0.34375,0.45313 1.07813,0.75 0.42187,0.15625 2.48437,0.71875 2.98438,0.79688 4.15625,1.3125 1.1875,0.5 1.85938,1.46875 0.67187,0.96875 0.67187,2.40625 0,1.40625 -0.82812,2.65625 -0.8125,1.23438 -2.35938,1.92188 -1.54687,0.67187 -3.5,0.67187 -3.23437,0 -4.9375,-1.34375 -1.6875,-1.34375 -2.15625,-3.98437 z m 16,0 2.78125,-0.4375 q 0.23438,1.67187 1.29688,2.5625 1.07812,0.89062 3,0.89062 1.9375,0 2.875,-0.78125 0.9375,-0.79687 0.9375,-1.85937 0,-0.95313 -0.82813,-1.5 -0.57812,-0.375 -2.875,-0.95313 -3.09375,-0.78125 -4.29687,-1.34375 -1.1875,-0.57812 -1.8125,-1.57812 -0.60938,-1.01563 -0.60938,-2.23438 0,-1.10937 0.5,-2.04687 0.51563,-0.95313 1.39063,-1.57813 0.65625,-0.48437 1.78125,-0.8125 1.14062,-0.34375 2.4375,-0.34375 1.95312,0 3.42187,0.5625 1.48438,0.5625 2.1875,1.53125 0.70313,0.95313 0.96875,2.5625 l -2.75,0.375 q -0.1875,-1.28125 -1.09375,-2 -0.89062,-0.71875 -2.53125,-0.71875 -1.9375,0 -2.76562,0.64063 -0.82813,0.64062 -0.82813,1.5 0,0.54687 0.34375,0.98437 0.34375,0.45313 1.07813,0.75 0.42187,0.15625 2.48437,0.71875 2.98438,0.79688 4.15625,1.3125 1.1875,0.5 1.85938,1.46875 0.67187,0.96875 0.67187,2.40625 0,1.40625 -0.82812,2.65625 -0.8125,1.23438 -2.35938,1.92188 -1.54687,0.67187 -3.5,0.67187 -3.23437,0 -4.9375,-1.34375 -1.6875,-1.34375 -2.15625,-3.98437 z m 16.07813,-3.34375 q 0,-4.60938 2.5625,-6.82813 2.14062,-1.84375 5.21875,-1.84375 3.42187,0 5.59375,2.25 2.17187,2.23438 2.17187,6.1875 0,3.20313 -0.96875,5.04688 -0.95312,1.82812 -2.79687,2.84375 -1.82813,1.01562 -4,1.01562 -3.48438,0 -5.64063,-2.23437 -2.14062,-2.23438 -2.14062,-6.4375 z m 2.89062,0 q 0,3.1875 1.39063,4.78125 1.39062,1.57812 3.5,1.57812 2.09375,0 3.48437,-1.59375 1.39063,-1.59375 1.39063,-4.85937 0,-3.07813 -1.40625,-4.65625 -1.39063,-1.59375 -3.46875,-1.59375 -2.10938,0 -3.5,1.57812 -1.39063,1.57813 -1.39063,4.76563 z m 15.92188,8.29687 0,-16.59375 2.53125,0 0,2.51563 q 0.96875,-1.76563 1.78125,-2.32813 0.82812,-0.5625 1.8125,-0.5625 1.42187,0 2.89062,0.90625 l -0.96875,2.60938 q -1.03125,-0.60938 -2.0625,-0.60938 -0.92187,0 -1.65625,0.5625 -0.73437,0.54688 -1.04687,1.53125 -0.46875,1.5 -0.46875,3.28125 l 0,8.6875 -2.8125,0 z"
       id="path6046"
       inkscape:connector-curvature="0"
       style="fill:#000000;fill-rule:nonzero" />
    <path
       d="m 103.84515,293.37814 0,0 c 0,-5.40988 4.38558,-9.79547 9.79547,-9.79547 l 309.88937,0 c 2.5979,0 5.08945,1.03201 6.92645,2.86902 1.83701,1.83703 2.86902,4.32855 2.86902,6.92645 l 0,39.18073 c 0,5.40988 -4.38559,9.79547 -9.79547,9.79547 l -309.88937,0 0,0 c -5.40989,0 -9.79547,-4.38559 -9.79547,-9.79547 z"
       id="path6048"
       inkscape:connector-curvature="0"
       style="fill:#000000;fill-opacity:0;fill-rule:evenodd" />
    <path
       d="m 103.84515,293.37814 0,0 c 0,-5.40988 4.38558,-9.79547 9.79547,-9.79547 l 309.88937,0 c 2.5979,0 5.08945,1.03201 6.92645,2.86902 1.83701,1.83703 2.86902,4.32855 2.86902,6.92645 l 0,39.18073 c 0,5.40988 -4.38559,9.79547 -9.79547,9.79547 l -309.88937,0 0,0 c -5.40989,0 -9.79547,-4.38559 -9.79547,-9.79547 z"
       id="path6050"
       inkscape:connector-curvature="0"
       style="fill-rule:evenodd;stroke:#000000;stroke-width:1;stroke-linecap:butt;stroke-linejoin:round" />
    <path
       d="m 222.43744,322.5685 0,-19.07813 3.79687,0 4.51563,13.5 q 0.625,1.89063 0.90625,2.82813 0.32812,-1.03125 1.01562,-3.0625 l 4.57813,-13.26563 3.39062,0 0,19.07813 -2.4375,0 0,-15.96875 -5.54687,15.96875 -2.26563,0 -5.53125,-16.25 0,16.25 -2.42187,0 z m 31.43924,-4.45313 2.42188,0.29688 q -0.57813,2.125 -2.125,3.29687 -1.54688,1.17188 -3.95313,1.17188 -3.03125,0 -4.8125,-1.85938 -1.78125,-1.875 -1.78125,-5.25 0,-3.48437 1.79688,-5.40625 1.79687,-1.9375 4.67187,-1.9375 2.76563,0 4.51563,1.89063 1.76562,1.89062 1.76562,5.3125 0,0.20312 -0.0156,0.625 l -10.3125,0 q 0.14062,2.28125 1.29687,3.5 1.15625,1.20312 2.89063,1.20312 1.28125,0 2.1875,-0.67187 0.92187,-0.6875 1.45312,-2.17188 z m -7.6875,-3.78125 7.71875,0 q -0.15625,-1.75 -0.89062,-2.625 -1.125,-1.34375 -2.90625,-1.34375 -1.60938,0 -2.71875,1.07813 -1.09375,1.07812 -1.20313,2.89062 z m 13.0437,8.23438 0,-13.82813 2.10938,0 0,1.9375 q 0.64062,-1.01562 1.71875,-1.625 1.09375,-0.625 2.46875,-0.625 1.53125,0 2.51562,0.64063 0.98438,0.64062 1.39063,1.78125 1.64062,-2.42188 4.26562,-2.42188 2.0625,0 3.15625,1.14063 1.10938,1.14062 1.10938,3.51562 l 0,9.48438 -2.32813,0 0,-8.70313 q 0,-1.40625 -0.23437,-2.01562 -0.21875,-0.625 -0.82813,-1 -0.59375,-0.39063 -1.39062,-0.39063 -1.46875,0 -2.4375,0.96875 -0.95313,0.96875 -0.95313,3.10938 l 0,8.03125 -2.34375,0 0,-8.98438 q 0,-1.5625 -0.57812,-2.34375 -0.5625,-0.78125 -1.875,-0.78125 -0.98438,0 -1.82813,0.53125 -0.82812,0.51563 -1.21875,1.51563 -0.375,1 -0.375,2.89062 l 0,7.17188 -2.34375,0 z m 21.34549,-6.90625 q 0,-3.84375 2.125,-5.6875 1.78125,-1.54688 4.34375,-1.54688 2.85938,0 4.65625,1.875 1.8125,1.85938 1.8125,5.15625 0,2.67188 -0.79687,4.20313 -0.79688,1.53125 -2.32813,2.375 -1.53125,0.84375 -3.34375,0.84375 -2.89062,0 -4.6875,-1.85938 -1.78125,-1.85937 -1.78125,-5.35937 z m 2.40625,0 q 0,2.65625 1.15625,3.98437 1.15625,1.3125 2.90625,1.3125 1.75,0 2.90625,-1.32812 1.15625,-1.32813 1.15625,-4.04688 0,-2.5625 -1.17187,-3.89062 -1.15625,-1.32813 -2.89063,-1.32813 -1.75,0 -2.90625,1.32813 -1.15625,1.3125 -1.15625,3.96875 z m 13.26242,6.90625 0,-13.82813 2.10938,0 0,2.09375 q 0.79687,-1.46875 1.48437,-1.9375 0.6875,-0.46875 1.5,-0.46875 1.1875,0 2.40625,0.76563 l -0.79687,2.17187 q -0.85938,-0.51562 -1.71875,-0.51562 -0.76563,0 -1.39063,0.46875 -0.60937,0.45312 -0.85937,1.28125 -0.39063,1.25 -0.39063,2.73437 l 0,7.23438 -2.34375,0 z m 8.79862,5.32812 -0.26563,-2.20312 q 0.76563,0.20312 1.34375,0.20312 0.78125,0 1.25,-0.26562 0.46875,-0.25 0.76563,-0.71875 0.21875,-0.35938 0.71875,-1.75 0.0625,-0.1875 0.20312,-0.5625 l -5.25,-13.85938 2.53125,0 2.875,8.01563 q 0.5625,1.51562 1,3.20312 0.40625,-1.625 0.96875,-3.15625 l 2.95313,-8.0625 2.34375,0 -5.26563,14.0625 q -0.84375,2.28125 -1.3125,3.14063 -0.625,1.15625 -1.4375,1.6875 -0.79687,0.54687 -1.92187,0.54687 -0.67188,0 -1.5,-0.28125 z"
       id="path6052"
       inkscape:connector-curvature="0"
       style="fill:#000000;fill-rule:nonzero" />
    <path
       d="m 171.97113,352.3622 10.6929,-10.69293 10.69292,10.69293 -5.34645,0 0,32.28345 5.34645,0 -10.69292,10.69293 -10.6929,-10.69293 5.34645,0 0,-32.28345 z"
       id="path6054"
       inkscape:connector-curvature="0"
       style="fill:#000000;fill-opacity:0;fill-rule:evenodd" />
    <path
       d="m 171.97113,352.3622 10.6929,-10.69293 10.69292,10.69293 -5.34645,0 0,32.28345 5.34645,0 -10.69292,10.69293 -10.6929,-10.69293 5.34645,0 0,-32.28345 z"
       id="path6056"
       inkscape:connector-curvature="0"
       style="fill-rule:evenodd;stroke:#000000;stroke-width:1;stroke-linecap:butt;stroke-linejoin:round" />
    <path
       d="m 342.68372,352.3622 10.69293,-10.69293 10.6929,10.69293 -5.34646,0 0,32.28345 5.34646,0 -10.6929,10.69293 -10.69293,-10.69293 5.34647,0 0,-32.28345 z"
       id="path6058"
       inkscape:connector-curvature="0"
       style="fill:#000000;fill-opacity:0;fill-rule:evenodd" />
    <path
       d="m 342.68372,352.3622 10.69293,-10.69293 10.6929,10.69293 -5.34646,0 0,32.28345 5.34646,0 -10.6929,10.69293 -10.69293,-10.69293 5.34647,0 0,-32.28345 z"
       id="path6060"
       inkscape:connector-curvature="0"
       style="fill-rule:evenodd;stroke:#000000;stroke-width:1;stroke-linecap:butt;stroke-linejoin:round" />
    <path
       d="m 509.76126,223.34421 359.05508,0 0,264.56693 -359.05508,0 z"
       id="path6062"
       inkscape:connector-curvature="0"
       style="fill:#000000;fill-opacity:0;fill-rule:evenodd" />
    <path
       d="m 509.76126,223.34421 359.05508,0 0,264.56693 -359.05508,0 z"
       id="path6064"
       inkscape:connector-curvature="0"
       style="fill-rule:evenodd;stroke:#000000;stroke-width:1;stroke-linecap:butt;stroke-linejoin:round;stroke-dasharray:4, 3, 1, 3" />
    <path
       d="m 520.8706,258.0642 0,-22.90625 2.8125,0 0,8.21875 q 1.96875,-2.28125 4.96875,-2.28125 1.84375,0 3.20312,0.73438 1.35938,0.71875 1.9375,2 0.59375,1.28125 0.59375,3.71875 l 0,10.51562 -2.8125,0 0,-10.51562 q 0,-2.10938 -0.92187,-3.0625 -0.90625,-0.96875 -2.57813,-0.96875 -1.25,0 -2.35937,0.65625 -1.09375,0.64062 -1.5625,1.75 -0.46875,1.10937 -0.46875,3.0625 l 0,9.07812 -2.8125,0 z m 16.75,-8.29687 q 0,-4.60938 2.5625,-6.82813 2.14062,-1.84375 5.21875,-1.84375 3.42187,0 5.59375,2.25 2.17187,2.23438 2.17187,6.1875 0,3.20313 -0.96875,5.04688 -0.95312,1.82812 -2.79687,2.84375 -1.82813,1.01562 -4,1.01562 -3.48438,0 -5.64063,-2.23437 -2.14062,-2.23438 -2.14062,-6.4375 z m 2.89062,0 q 0,3.1875 1.39063,4.78125 1.39062,1.57812 3.5,1.57812 2.09375,0 3.48437,-1.59375 1.39063,-1.59375 1.39063,-4.85937 0,-3.07813 -1.40625,-4.65625 -1.39063,-1.59375 -3.46875,-1.59375 -2.10938,0 -3.5,1.57812 -1.39063,1.57813 -1.39063,4.76563 z m 14.82813,3.34375 2.78125,-0.4375 q 0.23437,1.67187 1.29687,2.5625 1.07813,0.89062 3,0.89062 1.9375,0 2.875,-0.78125 0.9375,-0.79687 0.9375,-1.85937 0,-0.95313 -0.82812,-1.5 -0.57813,-0.375 -2.875,-0.95313 -3.09375,-0.78125 -4.29688,-1.34375 -1.1875,-0.57812 -1.8125,-1.57812 -0.60937,-1.01563 -0.60937,-2.23438 0,-1.10937 0.5,-2.04687 0.51562,-0.95313 1.39062,-1.57813 0.65625,-0.48437 1.78125,-0.8125 1.14063,-0.34375 2.4375,-0.34375 1.95313,0 3.42188,0.5625 1.48437,0.5625 2.1875,1.53125 0.70312,0.95313 0.96875,2.5625 l -2.75,0.375 q -0.1875,-1.28125 -1.09375,-2 -0.89063,-0.71875 -2.53125,-0.71875 -1.9375,0 -2.76563,0.64063 -0.82812,0.64062 -0.82812,1.5 0,0.54687 0.34375,0.98437 0.34375,0.45313 1.07812,0.75 0.42188,0.15625 2.48438,0.71875 2.98437,0.79688 4.15625,1.3125 1.1875,0.5 1.85937,1.46875 0.67188,0.96875 0.67188,2.40625 0,1.40625 -0.82813,2.65625 -0.8125,1.23438 -2.35937,1.92188 -1.54688,0.67187 -3.5,0.67187 -3.23438,0 -4.9375,-1.34375 -1.6875,-1.34375 -2.15625,-3.98437 z m 23.26562,2.4375 0.40625,2.48437 q -1.1875,0.25 -2.125,0.25 -1.53125,0 -2.375,-0.48437 -0.84375,-0.48438 -1.1875,-1.26563 -0.34375,-0.79687 -0.34375,-3.32812 l 0,-9.54688 -2.0625,0 0,-2.1875 2.0625,0 0,-4.10937 2.79688,-1.6875 0,5.79687 2.82812,0 0,2.1875 -2.82812,0 0,9.70313 q 0,1.20312 0.14062,1.54687 0.15625,0.34375 0.48438,0.54688 0.34375,0.20312 0.96875,0.20312 0.46875,0 1.23437,-0.10937 z"
       id="path6066"
       inkscape:connector-curvature="0"
       style="fill:#000000;fill-rule:nonzero" />
    <path
       d="m 589.6987,251.76733 q 0,-4.85938 2.85938,-8.04688 2.35937,-2.625 6.1875,-2.625 3,0 4.82812,1.875 1.84375,1.875 1.84375,5.0625 0,2.85938 -1.15625,5.32813 -1.15625,2.45312 -3.29687,3.76563 -2.125,1.3125 -4.48438,1.3125 -1.9375,0 -3.53125,-0.82813 -1.57812,-0.82812 -2.42187,-2.34375 -0.82813,-1.51562 -0.82813,-3.5 z m 2.82813,-0.28125 q 0,2.34375 1.125,3.5625 1.125,1.20313 2.85937,1.20313 0.90625,0 1.79688,-0.35938 0.89062,-0.375 1.65625,-1.125 0.76562,-0.75 1.29687,-1.70312 0.54688,-0.96875 0.875,-2.07813 0.48438,-1.54687 0.48438,-2.96875 0,-2.25 -1.14063,-3.48437 -1.125,-1.25 -2.84375,-1.25 -1.32812,0 -2.42187,0.64062 -1.09375,0.625 -1.98438,1.84375 -0.875,1.21875 -1.29687,2.84375 -0.40625,1.60938 -0.40625,2.875 z m 14.46875,6.57813 3.46875,-16.59375 2.5,0 -0.70313,3.39062 q 1.28125,-1.92187 2.5,-2.84375 1.23438,-0.92187 2.51563,-0.92187 0.84375,0 2.07812,0.60937 l -1.15625,2.625 q -0.73437,-0.53125 -1.60937,-0.53125 -1.48438,0 -3.04688,1.65625 -1.5625,1.65625 -2.45312,5.95313 l -1.40625,6.65625 -2.6875,0 z"
       id="path6068"
       inkscape:connector-curvature="0"
       style="fill:#000000;fill-rule:nonzero" />
    <path
       d="m 627.58936,258.0642 0,-16.59375 2.53125,0 0,2.35938 q 1.82813,-2.73438 5.28125,-2.73438 1.5,0 2.75,0.54688 1.26563,0.53125 1.89063,1.40625 0.625,0.875 0.875,2.07812 0.15625,0.78125 0.15625,2.73438 l 0,10.20312 -2.8125,0 0,-10.09375 q 0,-1.71875 -0.32813,-2.5625 -0.32812,-0.85937 -1.17187,-1.35937 -0.82813,-0.51563 -1.95313,-0.51563 -1.79687,0 -3.10937,1.14063 -1.29688,1.14062 -1.29688,4.32812 l 0,9.0625 -2.8125,0 z m 16.75,-8.29687 q 0,-4.60938 2.5625,-6.82813 2.14063,-1.84375 5.21875,-1.84375 3.42188,0 5.59375,2.25 2.17188,2.23438 2.17188,6.1875 0,3.20313 -0.96875,5.04688 -0.95313,1.82812 -2.79688,2.84375 -1.82812,1.01562 -4,1.01562 -3.48437,0 -5.64062,-2.23437 -2.14063,-2.23438 -2.14063,-6.4375 z m 2.89063,0 q 0,3.1875 1.39062,4.78125 1.39063,1.57812 3.5,1.57812 2.09375,0 3.48438,-1.59375 1.39062,-1.59375 1.39062,-4.85937 0,-3.07813 -1.40625,-4.65625 -1.39062,-1.59375 -3.46875,-1.59375 -2.10937,0 -3.5,1.57812 -1.39062,1.57813 -1.39062,4.76563 z m 26.71875,8.29687 0,-2.09375 q -1.57813,2.46875 -4.64063,2.46875 -1.98437,0 -3.65625,-1.09375 -1.65625,-1.09375 -2.57812,-3.04687 -0.90625,-1.96875 -0.90625,-4.51563 0,-2.48437 0.82812,-4.5 0.82813,-2.03125 2.48438,-3.10937 1.65625,-1.07813 3.70312,-1.07813 1.5,0 2.67188,0.64063 1.17187,0.625 1.90625,1.64062 l 0,-8.21875 2.79687,0 0,22.90625 -2.60937,0 z m -8.89063,-8.28125 q 0,3.1875 1.34375,4.76563 1.34375,1.57812 3.17188,1.57812 1.84375,0 3.125,-1.5 1.29687,-1.51562 1.29687,-4.60937 0,-3.40625 -1.3125,-5 -1.3125,-1.59375 -3.23437,-1.59375 -1.875,0 -3.14063,1.53125 -1.25,1.53125 -1.25,4.82812 z m 27.28125,2.9375 2.90625,0.35938 q -0.6875,2.54687 -2.54687,3.95312 -1.85938,1.40625 -4.75,1.40625 -3.64063,0 -5.78125,-2.23437 -2.125,-2.25 -2.125,-6.29688 0,-4.1875 2.15625,-6.5 2.15625,-2.3125 5.59375,-2.3125 3.32812,0 5.4375,2.26563 2.10937,2.26562 2.10937,6.375 0,0.25 -0.0156,0.75 l -12.375,0 q 0.15625,2.73437 1.54687,4.1875 1.39063,1.45312 3.46875,1.45312 1.54688,0 2.64063,-0.8125 1.09375,-0.8125 1.73437,-2.59375 z m -9.23437,-4.54687 9.26562,0 q -0.1875,-2.09375 -1.0625,-3.14063 -1.34375,-1.625 -3.48437,-1.625 -1.9375,0 -3.26563,1.29688 -1.3125,1.29687 -1.45312,3.46875 z"
       id="path6070"
       inkscape:connector-curvature="0"
       style="fill:#000000;fill-rule:nonzero" />
    <path
       d="m 520.6798,395.31757 159.87396,0 0,75.59058 -159.87396,0 z"
       id="path6072"
       inkscape:connector-curvature="0"
       style="fill:#000000;fill-opacity:0;fill-rule:evenodd" />
    <path
       d="m 520.6798,395.31757 159.87396,0 0,75.59058 -159.87396,0 z"
       id="path6074"
       inkscape:connector-curvature="0"
       style="fill-rule:evenodd;stroke:#000000;stroke-width:1;stroke-linecap:butt;stroke-linejoin:round" />
    <path
       d="m 532.75644,451.19223 0,-22.95313 2.5625,0 0,2.15625 q 0.90625,-1.26562 2.04687,-1.89062 1.14063,-0.64063 2.76563,-0.64063 2.125,0 3.75,1.09375 1.625,1.09375 2.45312,3.09375 0.82813,1.98438 0.82813,4.35938 0,2.54687 -0.92188,4.59375 -0.90625,2.03125 -2.65625,3.125 -1.73437,1.07812 -3.65625,1.07812 -1.40625,0 -2.53125,-0.59375 -1.10937,-0.59375 -1.82812,-1.5 l 0,8.07813 -2.8125,0 z m 2.54687,-14.5625 q 0,3.20312 1.29688,4.73437 1.29687,1.53125 3.14062,1.53125 1.875,0 3.20313,-1.57812 1.34375,-1.59375 1.34375,-4.92188 0,-3.17187 -1.3125,-4.75 -1.29688,-1.57812 -3.10938,-1.57812 -1.79687,0 -3.1875,1.6875 -1.375,1.67187 -1.375,4.875 z m 15.21875,8.20312 0,-16.59375 2.53125,0 0,2.51563 q 0.96875,-1.76563 1.78125,-2.32813 0.82813,-0.5625 1.8125,-0.5625 1.42188,0 2.89063,0.90625 l -0.96875,2.60938 q -1.03125,-0.60938 -2.0625,-0.60938 -0.92188,0 -1.65625,0.5625 -0.73438,0.54688 -1.04688,1.53125 -0.46875,1.5 -0.46875,3.28125 l 0,8.6875 -2.8125,0 z m 9.64063,-8.29687 q 0,-4.60938 2.5625,-6.82813 2.14062,-1.84375 5.21875,-1.84375 3.42187,0 5.59375,2.25 2.17187,2.23438 2.17187,6.1875 0,3.20313 -0.96875,5.04688 -0.95312,1.82812 -2.79687,2.84375 -1.82813,1.01562 -4,1.01562 -3.48438,0 -5.64063,-2.23437 -2.14062,-2.23438 -2.14062,-6.4375 z m 2.89062,0 q 0,3.1875 1.39063,4.78125 1.39062,1.57812 3.5,1.57812 2.09375,0 3.48437,-1.59375 1.39063,-1.59375 1.39063,-4.85937 0,-3.07813 -1.40625,-4.65625 -1.39063,-1.59375 -3.46875,-1.59375 -2.10938,0 -3.5,1.57812 -1.39063,1.57813 -1.39063,4.76563 z m 26.78125,2.21875 2.76563,0.35937 q -0.45313,2.85938 -2.32813,4.48438 -1.85937,1.60937 -4.57812,1.60937 -3.40625,0 -5.48438,-2.21875 -2.0625,-2.23437 -2.0625,-6.39062 0,-2.6875 0.89063,-4.70313 0.89062,-2.01562 2.70312,-3.01562 1.82813,-1.01563 3.96875,-1.01563 2.70313,0 4.42188,1.375 1.71875,1.35938 2.20312,3.875 l -2.73437,0.42188 q -0.39063,-1.67188 -1.39063,-2.51563 -0.98437,-0.84375 -2.39062,-0.84375 -2.125,0 -3.45313,1.53125 -1.32812,1.51563 -1.32812,4.8125 0,3.34375 1.28125,4.85938 1.28125,1.51562 3.34375,1.51562 1.65625,0 2.76562,-1.01562 1.10938,-1.01563 1.40625,-3.125 z m 16.53125,0.73437 2.90625,0.35938 q -0.6875,2.54687 -2.54687,3.95312 -1.85938,1.40625 -4.75,1.40625 -3.64063,0 -5.78125,-2.23437 -2.125,-2.25 -2.125,-6.29688 0,-4.1875 2.15625,-6.5 2.15625,-2.3125 5.59375,-2.3125 3.32812,0 5.4375,2.26563 2.10937,2.26562 2.10937,6.375 0,0.25 -0.0156,0.75 l -12.375,0 q 0.15625,2.73437 1.54687,4.1875 1.39063,1.45312 3.46875,1.45312 1.54688,0 2.64063,-0.8125 1.09375,-0.8125 1.73437,-2.59375 z m -9.23437,-4.54687 9.26562,0 q -0.1875,-2.09375 -1.0625,-3.14063 -1.34375,-1.625 -3.48437,-1.625 -1.9375,0 -3.26563,1.29688 -1.3125,1.29687 -1.45312,3.46875 z m 14.54687,4.9375 2.78125,-0.4375 q 0.23438,1.67187 1.29688,2.5625 1.07812,0.89062 3,0.89062 1.9375,0 2.875,-0.78125 0.9375,-0.79687 0.9375,-1.85937 0,-0.95313 -0.82813,-1.5 -0.57812,-0.375 -2.875,-0.95313 -3.09375,-0.78125 -4.29687,-1.34375 -1.1875,-0.57812 -1.8125,-1.57812 -0.60938,-1.01563 -0.60938,-2.23438 0,-1.10937 0.5,-2.04687 0.51563,-0.95313 1.39063,-1.57813 0.65625,-0.48437 1.78125,-0.8125 1.14062,-0.34375 2.4375,-0.34375 1.95312,0 3.42187,0.5625 1.48438,0.5625 2.1875,1.53125 0.70313,0.95313 0.96875,2.5625 l -2.75,0.375 q -0.1875,-1.28125 -1.09375,-2 -0.89062,-0.71875 -2.53125,-0.71875 -1.9375,0 -2.76562,0.64063 -0.82813,0.64062 -0.82813,1.5 0,0.54687 0.34375,0.98437 0.34375,0.45313 1.07813,0.75 0.42187,0.15625 2.48437,0.71875 2.98438,0.79688 4.15625,1.3125 1.1875,0.5 1.85938,1.46875 0.67187,0.96875 0.67187,2.40625 0,1.40625 -0.82812,2.65625 -0.8125,1.23438 -2.35938,1.92188 -1.54687,0.67187 -3.5,0.67187 -3.23437,0 -4.9375,-1.34375 -1.6875,-1.34375 -2.15625,-3.98437 z m 16,0 2.78125,-0.4375 q 0.23438,1.67187 1.29688,2.5625 1.07812,0.89062 3,0.89062 1.9375,0 2.875,-0.78125 0.9375,-0.79687 0.9375,-1.85937 0,-0.95313 -0.82813,-1.5 -0.57812,-0.375 -2.875,-0.95313 -3.09375,-0.78125 -4.29687,-1.34375 -1.1875,-0.57812 -1.8125,-1.57812 -0.60938,-1.01563 -0.60938,-2.23438 0,-1.10937 0.5,-2.04687 0.51563,-0.95313 1.39063,-1.57813 0.65625,-0.48437 1.78125,-0.8125 1.14062,-0.34375 2.4375,-0.34375 1.95312,0 3.42187,0.5625 1.48438,0.5625 2.1875,1.53125 0.70313,0.95313 0.96875,2.5625 l -2.75,0.375 q -0.1875,-1.28125 -1.09375,-2 -0.89062,-0.71875 -2.53125,-0.71875 -1.9375,0 -2.76562,0.64063 -0.82813,0.64062 -0.82813,1.5 0,0.54687 0.34375,0.98437 0.34375,0.45313 1.07813,0.75 0.42187,0.15625 2.48437,0.71875 2.98438,0.79688 4.15625,1.3125 1.1875,0.5 1.85938,1.46875 0.67187,0.96875 0.67187,2.40625 0,1.40625 -0.82812,2.65625 -0.8125,1.23438 -2.35938,1.92188 -1.54687,0.67187 -3.5,0.67187 -3.23437,0 -4.9375,-1.34375 -1.6875,-1.34375 -2.15625,-3.98437 z m 16.07813,-3.34375 q 0,-4.60938 2.5625,-6.82813 2.14062,-1.84375 5.21875,-1.84375 3.42187,0 5.59375,2.25 2.17187,2.23438 2.17187,6.1875 0,3.20313 -0.96875,5.04688 -0.95312,1.82812 -2.79687,2.84375 -1.82813,1.01562 -4,1.01562 -3.48438,0 -5.64063,-2.23437 -2.14062,-2.23438 -2.14062,-6.4375 z m 2.89062,0 q 0,3.1875 1.39063,4.78125 1.39062,1.57812 3.5,1.57812 2.09375,0 3.48437,-1.59375 1.39063,-1.59375 1.39063,-4.85937 0,-3.07813 -1.40625,-4.65625 -1.39063,-1.59375 -3.46875,-1.59375 -2.10938,0 -3.5,1.57812 -1.39063,1.57813 -1.39063,4.76563 z m 15.92188,8.29687 0,-16.59375 2.53125,0 0,2.51563 q 0.96875,-1.76563 1.78125,-2.32813 0.82812,-0.5625 1.8125,-0.5625 1.42187,0 2.89062,0.90625 l -0.96875,2.60938 q -1.03125,-0.60938 -2.0625,-0.60938 -0.92187,0 -1.65625,0.5625 -0.73437,0.54688 -1.04687,1.53125 -0.46875,1.5 -0.46875,3.28125 l 0,8.6875 -2.8125,0 z"
       id="path6076"
       inkscape:connector-curvature="0"
       style="fill:#000000;fill-rule:nonzero" />
    <path
       d="m 691.3924,395.31757 159.87402,0 0,75.59058 -159.87402,0 z"
       id="path6078"
       inkscape:connector-curvature="0"
       style="fill:#000000;fill-opacity:0;fill-rule:evenodd" />
    <path
       d="m 691.3924,395.31757 159.87402,0 0,75.59058 -159.87402,0 z"
       id="path6080"
       inkscape:connector-curvature="0"
       style="fill-rule:evenodd;stroke:#000000;stroke-width:1;stroke-linecap:butt;stroke-linejoin:round" />
    <path
       d="m 703.46904,451.19223 0,-22.95313 2.5625,0 0,2.15625 q 0.90625,-1.26562 2.04687,-1.89062 1.14063,-0.64063 2.76563,-0.64063 2.125,0 3.75,1.09375 1.625,1.09375 2.45312,3.09375 0.82813,1.98438 0.82813,4.35938 0,2.54687 -0.92188,4.59375 -0.90625,2.03125 -2.65625,3.125 -1.73437,1.07812 -3.65625,1.07812 -1.40625,0 -2.53125,-0.59375 -1.10937,-0.59375 -1.82812,-1.5 l 0,8.07813 -2.8125,0 z m 2.54687,-14.5625 q 0,3.20312 1.29688,4.73437 1.29687,1.53125 3.14062,1.53125 1.875,0 3.20313,-1.57812 1.34375,-1.59375 1.34375,-4.92188 0,-3.17187 -1.3125,-4.75 -1.29688,-1.57812 -3.10938,-1.57812 -1.79687,0 -3.1875,1.6875 -1.375,1.67187 -1.375,4.875 z m 15.21875,8.20312 0,-16.59375 2.53125,0 0,2.51563 q 0.96875,-1.76563 1.78125,-2.32813 0.82813,-0.5625 1.8125,-0.5625 1.42188,0 2.89063,0.90625 l -0.96875,2.60938 q -1.03125,-0.60938 -2.0625,-0.60938 -0.92188,0 -1.65625,0.5625 -0.73438,0.54688 -1.04688,1.53125 -0.46875,1.5 -0.46875,3.28125 l 0,8.6875 -2.8125,0 z m 9.64063,-8.29687 q 0,-4.60938 2.5625,-6.82813 2.14062,-1.84375 5.21875,-1.84375 3.42187,0 5.59375,2.25 2.17187,2.23438 2.17187,6.1875 0,3.20313 -0.96875,5.04688 -0.95312,1.82812 -2.79687,2.84375 -1.82813,1.01562 -4,1.01562 -3.48438,0 -5.64063,-2.23437 -2.14062,-2.23438 -2.14062,-6.4375 z m 2.89062,0 q 0,3.1875 1.39063,4.78125 1.39062,1.57812 3.5,1.57812 2.09375,0 3.48437,-1.59375 1.39063,-1.59375 1.39063,-4.85937 0,-3.07813 -1.40625,-4.65625 -1.39063,-1.59375 -3.46875,-1.59375 -2.10938,0 -3.5,1.57812 -1.39063,1.57813 -1.39063,4.76563 z m 26.78125,2.21875 2.76563,0.35937 q -0.45313,2.85938 -2.32813,4.48438 -1.85937,1.60937 -4.57812,1.60937 -3.40625,0 -5.48438,-2.21875 -2.0625,-2.23437 -2.0625,-6.39062 0,-2.6875 0.89063,-4.70313 0.89062,-2.01562 2.70312,-3.01562 1.82813,-1.01563 3.96875,-1.01563 2.70313,0 4.42188,1.375 1.71875,1.35938 2.20312,3.875 l -2.73437,0.42188 q -0.39063,-1.67188 -1.39063,-2.51563 -0.98437,-0.84375 -2.39062,-0.84375 -2.125,0 -3.45313,1.53125 -1.32812,1.51563 -1.32812,4.8125 0,3.34375 1.28125,4.85938 1.28125,1.51562 3.34375,1.51562 1.65625,0 2.76562,-1.01562 1.10938,-1.01563 1.40625,-3.125 z m 16.53125,0.73437 2.90625,0.35938 q -0.6875,2.54687 -2.54687,3.95312 -1.85938,1.40625 -4.75,1.40625 -3.64063,0 -5.78125,-2.23437 -2.125,-2.25 -2.125,-6.29688 0,-4.1875 2.15625,-6.5 2.15625,-2.3125 5.59375,-2.3125 3.32812,0 5.4375,2.26563 2.10937,2.26562 2.10937,6.375 0,0.25 -0.0156,0.75 l -12.375,0 q 0.15625,2.73437 1.54687,4.1875 1.39063,1.45312 3.46875,1.45312 1.54688,0 2.64063,-0.8125 1.09375,-0.8125 1.73437,-2.59375 z m -9.23437,-4.54687 9.26562,0 q -0.1875,-2.09375 -1.0625,-3.14063 -1.34375,-1.625 -3.48437,-1.625 -1.9375,0 -3.26563,1.29688 -1.3125,1.29687 -1.45312,3.46875 z m 14.54687,4.9375 2.78125,-0.4375 q 0.23438,1.67187 1.29688,2.5625 1.07812,0.89062 3,0.89062 1.9375,0 2.875,-0.78125 0.9375,-0.79687 0.9375,-1.85937 0,-0.95313 -0.82813,-1.5 -0.57812,-0.375 -2.875,-0.95313 -3.09375,-0.78125 -4.29687,-1.34375 -1.1875,-0.57812 -1.8125,-1.57812 -0.60938,-1.01563 -0.60938,-2.23438 0,-1.10937 0.5,-2.04687 0.51563,-0.95313 1.39063,-1.57813 0.65625,-0.48437 1.78125,-0.8125 1.14062,-0.34375 2.4375,-0.34375 1.95312,0 3.42187,0.5625 1.48438,0.5625 2.1875,1.53125 0.70313,0.95313 0.96875,2.5625 l -2.75,0.375 q -0.1875,-1.28125 -1.09375,-2 -0.89062,-0.71875 -2.53125,-0.71875 -1.9375,0 -2.76562,0.64063 -0.82813,0.64062 -0.82813,1.5 0,0.54687 0.34375,0.98437 0.34375,0.45313 1.07813,0.75 0.42187,0.15625 2.48437,0.71875 2.98438,0.79688 4.15625,1.3125 1.1875,0.5 1.85938,1.46875 0.67187,0.96875 0.67187,2.40625 0,1.40625 -0.82812,2.65625 -0.8125,1.23438 -2.35938,1.92188 -1.54687,0.67187 -3.5,0.67187 -3.23437,0 -4.9375,-1.34375 -1.6875,-1.34375 -2.15625,-3.98437 z m 16,0 2.78125,-0.4375 q 0.23438,1.67187 1.29688,2.5625 1.07812,0.89062 3,0.89062 1.9375,0 2.875,-0.78125 0.9375,-0.79687 0.9375,-1.85937 0,-0.95313 -0.82813,-1.5 -0.57812,-0.375 -2.875,-0.95313 -3.09375,-0.78125 -4.29687,-1.34375 -1.1875,-0.57812 -1.8125,-1.57812 -0.60938,-1.01563 -0.60938,-2.23438 0,-1.10937 0.5,-2.04687 0.51563,-0.95313 1.39063,-1.57813 0.65625,-0.48437 1.78125,-0.8125 1.14062,-0.34375 2.4375,-0.34375 1.95312,0 3.42187,0.5625 1.48438,0.5625 2.1875,1.53125 0.70313,0.95313 0.96875,2.5625 l -2.75,0.375 q -0.1875,-1.28125 -1.09375,-2 -0.89062,-0.71875 -2.53125,-0.71875 -1.9375,0 -2.76562,0.64063 -0.82813,0.64062 -0.82813,1.5 0,0.54687 0.34375,0.98437 0.34375,0.45313 1.07813,0.75 0.42187,0.15625 2.48437,0.71875 2.98438,0.79688 4.15625,1.3125 1.1875,0.5 1.85938,1.46875 0.67187,0.96875 0.67187,2.40625 0,1.40625 -0.82812,2.65625 -0.8125,1.23438 -2.35938,1.92188 -1.54687,0.67187 -3.5,0.67187 -3.23437,0 -4.9375,-1.34375 -1.6875,-1.34375 -2.15625,-3.98437 z m 16.07813,-3.34375 q 0,-4.60938 2.5625,-6.82813 2.14062,-1.84375 5.21875,-1.84375 3.42187,0 5.59375,2.25 2.17187,2.23438 2.17187,6.1875 0,3.20313 -0.96875,5.04688 -0.95312,1.82812 -2.79687,2.84375 -1.82813,1.01562 -4,1.01562 -3.48438,0 -5.64063,-2.23437 -2.14062,-2.23438 -2.14062,-6.4375 z m 2.89062,0 q 0,3.1875 1.39063,4.78125 1.39062,1.57812 3.5,1.57812 2.09375,0 3.48437,-1.59375 1.39063,-1.59375 1.39063,-4.85937 0,-3.07813 -1.40625,-4.65625 -1.39063,-1.59375 -3.46875,-1.59375 -2.10938,0 -3.5,1.57812 -1.39063,1.57813 -1.39063,4.76563 z m 15.92188,8.29687 0,-16.59375 2.53125,0 0,2.51563 q 0.96875,-1.76563 1.78125,-2.32813 0.82812,-0.5625 1.8125,-0.5625 1.42187,0 2.89062,0.90625 l -0.96875,2.60938 q -1.03125,-0.60938 -2.0625,-0.60938 -0.92187,0 -1.65625,0.5625 -0.73437,0.54688 -1.04687,1.53125 -0.46875,1.5 -0.46875,3.28125 l 0,8.6875 -2.8125,0 z"
       id="path6082"
       inkscape:connector-curvature="0"
       style="fill:#000000;fill-rule:nonzero" />
    <path
       d="m 521.7979,293.37814 0,0 c 0,-5.40988 4.38556,-9.79547 9.79547,-9.79547 l 309.88934,0 c 2.59796,0 5.08948,1.03201 6.92645,2.86902 1.83704,1.83703 2.86902,4.32855 2.86902,6.92645 l 0,39.18073 c 0,5.40988 -4.38556,9.79547 -9.79547,9.79547 l -309.88934,0 0,0 c -5.40991,0 -9.79547,-4.38559 -9.79547,-9.79547 z"
       id="path6084"
       inkscape:connector-curvature="0"
       style="fill:#000000;fill-opacity:0;fill-rule:evenodd" />
    <path
       d="m 521.7979,293.37814 0,0 c 0,-5.40988 4.38556,-9.79547 9.79547,-9.79547 l 309.88934,0 c 2.59796,0 5.08948,1.03201 6.92645,2.86902 1.83704,1.83703 2.86902,4.32855 2.86902,6.92645 l 0,39.18073 c 0,5.40988 -4.38556,9.79547 -9.79547,9.79547 l -309.88934,0 0,0 c -5.40991,0 -9.79547,-4.38559 -9.79547,-9.79547 z"
       id="path6086"
       inkscape:connector-curvature="0"
       style="fill-rule:evenodd;stroke:#000000;stroke-width:1;stroke-linecap:butt;stroke-linejoin:round" />
    <path
       d="m 640.3902,322.5685 0,-19.07813 3.79688,0 4.51562,13.5 q 0.625,1.89063 0.90625,2.82813 0.32813,-1.03125 1.01563,-3.0625 l 4.57812,-13.26563 3.39063,0 0,19.07813 -2.4375,0 0,-15.96875 -5.54688,15.96875 -2.26562,0 -5.53125,-16.25 0,16.25 -2.42188,0 z m 31.43921,-4.45313 2.42187,0.29688 q -0.57812,2.125 -2.125,3.29687 -1.54687,1.17188 -3.95312,1.17188 -3.03125,0 -4.8125,-1.85938 -1.78125,-1.875 -1.78125,-5.25 0,-3.48437 1.79687,-5.40625 1.79688,-1.9375 4.67188,-1.9375 2.76562,0 4.51562,1.89063 1.76563,1.89062 1.76563,5.3125 0,0.20312 -0.0156,0.625 l -10.3125,0 q 0.14063,2.28125 1.29688,3.5 1.15625,1.20312 2.89062,1.20312 1.28125,0 2.1875,-0.67187 0.92188,-0.6875 1.45313,-2.17188 z m -7.6875,-3.78125 7.71875,0 q -0.15625,-1.75 -0.89063,-2.625 -1.125,-1.34375 -2.90625,-1.34375 -1.60937,0 -2.71875,1.07813 -1.09375,1.07812 -1.20312,2.89062 z m 13.0437,8.23438 0,-13.82813 2.10938,0 0,1.9375 q 0.64062,-1.01562 1.71875,-1.625 1.09375,-0.625 2.46875,-0.625 1.53125,0 2.51562,0.64063 0.98438,0.64062 1.39063,1.78125 1.64062,-2.42188 4.26562,-2.42188 2.0625,0 3.15625,1.14063 1.10938,1.14062 1.10938,3.51562 l 0,9.48438 -2.32813,0 0,-8.70313 q 0,-1.40625 -0.23437,-2.01562 -0.21875,-0.625 -0.82813,-1 -0.59375,-0.39063 -1.39062,-0.39063 -1.46875,0 -2.4375,0.96875 -0.95313,0.96875 -0.95313,3.10938 l 0,8.03125 -2.34375,0 0,-8.98438 q 0,-1.5625 -0.57812,-2.34375 -0.5625,-0.78125 -1.875,-0.78125 -0.98438,0 -1.82813,0.53125 -0.82812,0.51563 -1.21875,1.51563 -0.375,1 -0.375,2.89062 l 0,7.17188 -2.34375,0 z m 21.34552,-6.90625 q 0,-3.84375 2.125,-5.6875 1.78125,-1.54688 4.34375,-1.54688 2.85938,0 4.65625,1.875 1.8125,1.85938 1.8125,5.15625 0,2.67188 -0.79687,4.20313 -0.79688,1.53125 -2.32813,2.375 -1.53125,0.84375 -3.34375,0.84375 -2.89062,0 -4.6875,-1.85938 -1.78125,-1.85937 -1.78125,-5.35937 z m 2.40625,0 q 0,2.65625 1.15625,3.98437 1.15625,1.3125 2.90625,1.3125 1.75,0 2.90625,-1.32812 1.15625,-1.32813 1.15625,-4.04688 0,-2.5625 -1.17187,-3.89062 -1.15625,-1.32813 -2.89063,-1.32813 -1.75,0 -2.90625,1.32813 -1.15625,1.3125 -1.15625,3.96875 z m 13.26239,6.90625 0,-13.82813 2.10938,0 0,2.09375 q 0.79687,-1.46875 1.48437,-1.9375 0.6875,-0.46875 1.5,-0.46875 1.1875,0 2.40625,0.76563 l -0.79687,2.17187 q -0.85938,-0.51562 -1.71875,-0.51562 -0.76563,0 -1.39063,0.46875 -0.60937,0.45312 -0.85937,1.28125 -0.39063,1.25 -0.39063,2.73437 l 0,7.23438 -2.34375,0 z m 8.79865,5.32812 -0.26563,-2.20312 q 0.76563,0.20312 1.34375,0.20312 0.78125,0 1.25,-0.26562 0.46875,-0.25 0.76563,-0.71875 0.21875,-0.35938 0.71875,-1.75 0.0625,-0.1875 0.20312,-0.5625 l -5.25,-13.85938 2.53125,0 2.875,8.01563 q 0.5625,1.51562 1,3.20312 0.40625,-1.625 0.96875,-3.15625 l 2.95313,-8.0625 2.34375,0 -5.26563,14.0625 q -0.84375,2.28125 -1.3125,3.14063 -0.625,1.15625 -1.4375,1.6875 -0.79687,0.54687 -1.92187,0.54687 -0.67188,0 -1.5,-0.28125 z"
       id="path6088"
       inkscape:connector-curvature="0"
       style="fill:#000000;fill-rule:nonzero" />
    <path
       d="m 589.9239,352.3622 10.69293,-10.69293 10.69287,10.69293 -5.34643,0 0,32.28345 5.34643,0 -10.69287,10.69293 -10.69293,-10.69293 5.34644,0 0,-32.28345 z"
       id="path6090"
       inkscape:connector-curvature="0"
       style="fill:#000000;fill-opacity:0;fill-rule:evenodd" />
    <path
       d="m 589.9239,352.3622 10.69293,-10.69293 10.69287,10.69293 -5.34643,0 0,32.28345 5.34643,0 -10.69287,10.69293 -10.69293,-10.69293 5.34644,0 0,-32.28345 z"
       id="path6092"
       inkscape:connector-curvature="0"
       style="fill-rule:evenodd;stroke:#000000;stroke-width:1;stroke-linecap:butt;stroke-linejoin:round" />
    <path
       d="m 760.6365,352.3622 10.69293,-10.69293 10.69293,10.69293 -5.34649,0 0,32.28345 5.34649,0 -10.69293,10.69293 -10.69293,-10.69293 5.34644,0 0,-32.28345 z"
       id="path6094"
       inkscape:connector-curvature="0"
       style="fill:#000000;fill-opacity:0;fill-rule:evenodd" />
    <path
       d="m 760.6365,352.3622 10.69293,-10.69293 10.69293,10.69293 -5.34649,0 0,32.28345 5.34649,0 -10.69293,10.69293 -10.69293,-10.69293 5.34644,0 0,-32.28345 z"
       id="path6096"
       inkscape:connector-curvature="0"
       style="fill-rule:evenodd;stroke:#000000;stroke-width:1;stroke-linecap:butt;stroke-linejoin:round" />
    <path
       d="m 256.3701,499.55133 10.6929,-10.69293 10.69293,10.69293 -5.34646,0 0,16.40942 5.34646,0 -10.69293,10.69294 -10.6929,-10.69294 5.34644,0 0,-16.40942 z"
       id="path6098"
       inkscape:connector-curvature="0"
       style="fill:#000000;fill-opacity:0;fill-rule:evenodd" />
    <path
       d="m 256.3701,499.55133 10.6929,-10.69293 10.69293,10.69293 -5.34646,0 0,16.40942 5.34646,0 -10.69293,10.69294 -10.6929,-10.69294 5.34644,0 0,-16.40942 z"
       id="path6100"
       inkscape:connector-curvature="0"
       style="fill-rule:evenodd;stroke:#000000;stroke-width:1;stroke-linecap:butt;stroke-linejoin:round" />
    <path
       d="m 675.7537,499.55133 10.69287,-10.69293 10.69293,10.69293 -5.34643,0 0,16.40942 5.34643,0 -10.69293,10.69294 -10.69287,-10.69294 5.34644,0 0,-16.40942 z"
       id="path6102"
       inkscape:connector-curvature="0"
       style="fill:#000000;fill-opacity:0;fill-rule:evenodd" />
    <path
       d="m 675.7537,499.55133 10.69287,-10.69293 10.69293,10.69293 -5.34643,0 0,16.40942 5.34643,0 -10.69293,10.69294 -10.69287,-10.69294 5.34644,0 0,-16.40942 z"
       id="path6104"
       inkscape:connector-curvature="0"
       style="fill-rule:evenodd;stroke:#000000;stroke-width:1;stroke-linecap:butt;stroke-linejoin:round" />
  </g>
</svg>
